<svg width="415" height="367" viewBox="0 0 415 367" fill="none" xmlns="http://www.w3.org/2000/svg">
<path d="M365.217 189.025L340.136 200.887L343.533 181.545L351.274 183.018L365.217 189.025Z" fill="#2E5900"/>
<g opacity="0.25" style="mix-blend-mode:soft-light">
<path d="M375.779 207.702L363.89 208.539L351.971 203.768L353.208 197.623L375.779 207.702Z" fill="black"/>
</g>
<path d="M254.618 258.301L234.974 265.628L242.306 292.429L261.951 285.102L254.618 258.301ZM281.676 277.745L262.032 285.072L254.699 258.271L274.343 250.944L281.676 277.745ZM342.964 343.496L323.32 350.823L315.987 324.021L335.631 316.694L342.964 343.496ZM308.654 297.22L315.987 324.021L296.342 331.348L289.009 304.547L281.676 277.745L301.321 270.418L308.654 297.22Z" fill="url(#paint0_linear_22_1897)"/>
<path d="M249.169 266.584L229.377 273.904L236.724 300.705L256.516 293.384L249.169 266.584ZM236.643 300.735L216.85 308.055L209.503 281.255L229.295 273.934L236.643 300.735ZM318.143 359.146L298.351 366.466L291.004 339.665L310.796 332.345L318.143 359.146ZM283.656 312.865L291.004 339.665L271.211 346.986L263.864 320.185L256.516 293.384L276.309 286.064L283.656 312.865Z" fill="url(#paint1_linear_22_1897)"/>
<path d="M279.777 243.078L261.497 254.359L271.452 279.813L289.732 268.532L279.777 243.078ZM308.088 257.204L289.807 268.486L279.852 243.031L298.132 231.75L308.088 257.204ZM374.514 311.004L356.234 322.286L346.278 296.831L364.559 285.55L374.514 311.004ZM336.323 271.377L346.278 296.831L327.998 308.113L318.043 282.658L308.088 257.204L326.368 245.923L336.323 271.377Z" fill="url(#paint2_linear_22_1897)"/>
<path d="M149.326 257.648L140.891 160.663L69.2739 220.958L77.7091 317.943L149.326 257.648Z" fill="url(#paint3_linear_22_1897)"/>
<path d="M236.065 296.729L227.629 199.745L140.891 160.663L149.326 257.648L236.065 296.729Z" fill="url(#paint4_linear_22_1897)"/>
<path d="M211.159 223.946L205.535 159.29L157.739 199.53L163.362 264.186L211.159 223.946Z" fill="url(#paint5_linear_22_1897)"/>
<g opacity="0.25" style="mix-blend-mode:soft-light">
<path d="M157.738 199.53L205.535 159.29L207.176 164.641L158.184 204.658L157.738 199.53Z" fill="black"/>
</g>
<path d="M269.041 250.026L263.418 185.369L205.535 159.29L211.159 223.946L269.041 250.026Z" fill="#632F1A"/>
<path d="M149.327 257.648L163.528 264.046L207.657 226.894L194.245 220.851L253.62 209.528L332.395 245.022L273.02 256.344L265.54 252.974L221.41 290.126L236.065 296.729L164.448 357.024L77.7094 317.943L149.327 257.648Z" fill="url(#paint6_linear_22_1897)"/>
<path d="M253.62 209.528L273.197 97.9178L213.822 109.24L194.245 220.851L253.62 209.528Z" fill="url(#paint7_linear_22_1897)"/>
<path d="M332.395 245.022L351.971 133.411L273.197 97.9178L253.62 209.528L332.395 245.022Z" fill="url(#paint8_linear_22_1897)"/>
<path opacity="0.25" d="M247.585 213.177L322.47 246.915L332.393 245.024L253.623 209.525L273.194 97.9165L267.615 98.9797L248.035 210.588L247.585 213.177Z" fill="url(#paint9_linear_22_1897)" style="mix-blend-mode:soft-light"/>
<path d="M332.395 245.022L351.971 133.411L273.197 97.9178L253.62 209.528L332.395 245.022Z" fill="url(#paint10_linear_22_1897)"/>
<path d="M232.147 0L227.628 26.6358L247.09 34.9673L251.609 8.33144L232.147 0ZM300.958 86.5973L296.44 113.233L276.978 104.902L281.496 78.2659L300.958 86.5973ZM266.552 43.2987L286.015 51.6301L281.496 78.2659L262.034 69.9345L242.572 61.6031L247.09 34.9673L266.552 43.2987Z" fill="url(#paint11_linear_22_1897)"/>
<path d="M394.698 52.6797L390.179 79.3155L409.642 87.647L414.16 61.0111L394.698 52.6797ZM346.737 89.2886L342.219 115.924L322.756 107.593L327.275 80.9572L346.737 89.2886ZM370.717 70.9841L390.179 79.3155L385.661 105.951L366.199 97.62L346.737 89.2886L351.255 62.6528L370.717 70.9841Z" fill="url(#paint12_linear_22_1897)"/>
<g opacity="0.5" style="mix-blend-mode:overlay">
<path d="M332.395 245.021L351.971 133.411L346.086 130.759L325.886 241.957L332.395 245.021Z" fill="white"/>
</g>
<g opacity="0.3" style="mix-blend-mode:overlay">
<path d="M181.937 179.157L140.891 160.663L141.476 167.39L177.518 182.877L181.937 179.157Z" fill="white"/>
</g>
<g opacity="0.25" style="mix-blend-mode:soft-light">
<path d="M141.476 167.39L74.7814 223.571L81.6774 303.078H76.4165L69.274 220.958L140.891 160.663L141.476 167.39Z" fill="black"/>
</g>
<path d="M322.47 246.914L273.019 256.344L265.54 252.974L223.999 287.947H217.066L264.47 248.462L273.806 252.323L316.46 244.207L322.47 246.914Z" fill="#DC7540"/>
<path d="M195.151 85.3179L275.273 70.043L377.972 116.316L365.217 189.025L351.274 183.018L356.68 152.197L269.019 113.336L203.447 123.507L198.055 154.252L182.69 156.364L195.151 85.3179Z" fill="url(#paint13_linear_22_1897)"/>
<path d="M203.442 123.505L269.023 113.34L356.68 152.195L351.274 183.018L343.533 181.545L347.722 157.644L268.042 122.323L210.074 131.318L203.699 166.95L198.055 154.252L203.442 123.505Z" fill="#2E5900"/>
<path d="M182.69 156.364L203.699 166.95L198.055 154.252L182.69 156.364Z" fill="#2E5900"/>
<path d="M275.273 70.043L269.023 113.34L203.442 123.505L198.055 154.252L182.69 156.364L195.151 85.3179L275.273 70.043Z" fill="url(#paint14_linear_22_1897)"/>
<g opacity="0.3" style="mix-blend-mode:overlay">
<path d="M365.217 189.025L377.972 116.316L275.273 70.043L273.888 79.6411L370.732 121.8L359.173 186.422L365.217 189.025Z" fill="white"/>
</g>
<path opacity="0.25" d="M273.888 79.6411L275.273 70.043L195.151 85.3179L182.69 156.364L190.72 155.26L200.715 92.149L273.888 79.6411Z" fill="url(#paint15_linear_22_1897)" style="mix-blend-mode:soft-light"/>
<path d="M320.696 231.493L375.779 207.702L353.208 197.623L296.501 220.592L320.696 231.493Z" fill="url(#paint16_linear_22_1897)"/>
<path d="M282.91 214.558L337.992 190.767L315.421 180.688L258.714 203.656L282.91 214.558Z" fill="url(#paint17_linear_22_1897)"/>
<path opacity="0.25" d="M320.697 231.494L314.18 236.809L290.686 226.191L296.501 220.592L320.697 231.494Z" fill="url(#paint18_linear_22_1897)" style="mix-blend-mode:soft-light"/>
<path opacity="0.25" d="M283.105 214.67L276.589 219.985L253.094 209.367L258.91 203.768L283.105 214.67Z" fill="url(#paint19_linear_22_1897)" style="mix-blend-mode:soft-light"/>
<path d="M298.422 128.662L296.569 115.51L283.586 122.086L298.422 128.662Z" fill="#2E5900"/>
<path d="M241.302 76.5194L234.583 89.4831L227.214 79.2052L241.302 76.5194Z" fill="#2E5900"/>
<g opacity="0.25" style="mix-blend-mode:soft-light">
<path d="M93.6262 224.398L94.4421 239.303L84.4265 245.021L80.717 228.696L93.6262 224.398Z" fill="black"/>
</g>
<g opacity="0.25" style="mix-blend-mode:soft-light">
<path d="M100.036 226.625L95.7065 217.118L100.812 210.2L107.4 219.721L100.036 226.625Z" fill="black"/>
</g>
<g opacity="0.25" style="mix-blend-mode:soft-light">
<path d="M177.086 242.922L172.756 233.416L177.861 226.497L184.449 236.018L177.086 242.922Z" fill="black"/>
</g>
<path d="M345.925 167.898L266.984 133.338L208.31 141.175L210.074 131.318L268.041 122.323L347.722 157.644L345.925 167.898Z" fill="#B2442F"/>
<path d="M266.984 133.339L268.939 122.184L210.074 131.318L208.311 141.176L266.984 133.339Z" fill="#77251B"/>
<path d="M245.313 125.85L241.222 146.622L225.642 151.899L226.604 128.753L245.313 125.85Z" fill="#331A0A"/>
<path d="M36.9155 267.728L45.8463 243.718L64.9116 257.686L55.9841 281.705L47.0568 305.724L27.9881 291.747L36.9155 267.728ZM8.92747 277.766L27.9881 291.747L19.0573 315.757L0.000198364 301.785L8.92747 277.766ZM103.128 285.7L112.055 261.681L73.8423 233.676L64.9116 257.686L103.128 285.7Z" fill="url(#paint20_linear_22_1897)"/>
<g opacity="0.25" style="mix-blend-mode:soft-light">
<path d="M112.055 261.681L73.8423 233.676L71.3429 240.286L109.837 267.649L112.055 261.681Z" fill="black"/>
</g>
<g opacity="0.25" style="mix-blend-mode:soft-light">
<path d="M64.9114 257.686L45.846 243.718L27.9878 291.747L32.7148 295.212L48.4344 253.42L62.8943 263.113L64.9114 257.686Z" fill="black"/>
</g>
<g opacity="0.25" style="mix-blend-mode:soft-light">
<path d="M27.988 291.747L8.92744 277.766L0.000173569 301.785L4.48601 305.074L11.3283 286.13L26.0126 297.058L27.988 291.747Z" fill="black"/>
</g>
<path d="M104.014 244.639L115.47 222.002L132.89 238.427L121.436 261.073L109.982 283.72L92.5601 267.286L104.014 244.639ZM75.1464 250.849L92.5601 267.286L81.1038 289.923L63.6926 273.495L75.1464 250.849ZM167.807 271.365L179.26 248.718L144.346 215.789L132.89 238.427L167.807 271.365Z" fill="url(#paint21_linear_22_1897)"/>
<g opacity="0.25" style="mix-blend-mode:soft-light">
<path d="M179.26 248.718L144.346 215.789L141.152 222.015L176.415 254.345L179.26 248.718Z" fill="black"/>
</g>
<g opacity="0.25" style="mix-blend-mode:soft-light">
<path d="M132.89 238.427L115.47 222.002L92.5598 267.286L96.8786 271.359L116.993 231.98L130.302 243.543L132.89 238.427Z" fill="black"/>
</g>
<g opacity="0.25" style="mix-blend-mode:soft-light">
<path d="M92.5603 267.285L75.1466 250.849L63.6928 273.495L67.7911 277.362L76.6277 259.474L90.0261 272.293L92.5603 267.285Z" fill="black"/>
</g>
<path d="M136.356 193.832L152.74 175.344L165.682 196.293L149.298 214.791L132.913 233.289L119.972 212.33L136.356 193.832ZM107.039 191.371L119.972 212.33L103.588 230.818L90.655 209.869L107.039 191.371ZM191.618 238.3L208.002 219.802L182.066 177.805L165.682 196.293L191.618 238.3Z" fill="url(#paint22_linear_22_1897)"/>
<g opacity="0.25" style="mix-blend-mode:soft-light">
<path d="M208.002 219.802L182.066 177.805L177.518 182.877L203.931 224.398L208.002 219.802Z" fill="black"/>
</g>
<g opacity="0.25" style="mix-blend-mode:soft-light">
<path d="M165.681 196.293L152.74 175.344L119.972 212.33L123.18 217.526L151.86 185.418L161.98 200.473L165.681 196.293Z" fill="black"/>
</g>
<g opacity="0.25" style="mix-blend-mode:soft-light">
<path d="M119.972 212.33L107.039 191.371L90.6551 209.869L93.6994 214.8L106.437 200.127L116.348 216.42L119.972 212.33Z" fill="black"/>
</g>
<g opacity="0.25" style="mix-blend-mode:soft-light">
<path d="M337.992 190.767L326.103 191.604L314.185 186.833L315.421 180.688L337.992 190.767Z" fill="black"/>
</g>
<g opacity="0.25" style="mix-blend-mode:soft-light">
<path d="M375.779 207.702L363.89 208.539L351.971 203.768L353.208 197.623L375.779 207.702Z" fill="black"/>
</g>
<g opacity="0.25" style="mix-blend-mode:soft-light">
<path d="M342.803 287.947L326.368 245.923L308.088 257.204L309.746 261.446L323.908 253.082L337.992 287.947H342.803Z" fill="black"/>
</g>
<g opacity="0.3" style="mix-blend-mode:overlay">
<path d="M332.77 116.395L330.705 128.107L320.161 124.082L323.038 111.835L332.77 116.395Z" fill="white"/>
</g>
<g opacity="0.25" style="mix-blend-mode:soft-light">
<path d="M216.855 100.287L215.148 109.971L205.535 111.664L207.917 101.528L216.855 100.287Z" fill="black"/>
</g>
<g opacity="0.2" style="mix-blend-mode:overlay">
<path d="M360.331 122.995L358.962 130.759L351.972 128.091L353.879 119.971L360.331 122.995Z" fill="white"/>
</g>
<defs>
<linearGradient id="paint0_linear_22_1897" x1="342.964" y1="300.883" x2="234.974" y2="300.883" gradientUnits="userSpaceOnUse">
<stop stop-color="#56190F"/>
<stop offset="0.866224" stop-color="#350605"/>
</linearGradient>
<linearGradient id="paint1_linear_22_1897" x1="318.143" y1="316.525" x2="209.503" y2="316.525" gradientUnits="userSpaceOnUse">
<stop stop-color="#56190F"/>
<stop offset="0.866224" stop-color="#300605"/>
</linearGradient>
<linearGradient id="paint2_linear_22_1897" x1="374.514" y1="277.018" x2="261.497" y2="277.018" gradientUnits="userSpaceOnUse">
<stop stop-color="#56190F"/>
<stop offset="0.866224" stop-color="#420D09"/>
</linearGradient>
<linearGradient id="paint3_linear_22_1897" x1="109.3" y1="317.943" x2="109.3" y2="160.663" gradientUnits="userSpaceOnUse">
<stop stop-color="#93331D"/>
<stop offset="0.996947" stop-color="#7C2618"/>
</linearGradient>
<linearGradient id="paint4_linear_22_1897" x1="188.478" y1="296.729" x2="188.478" y2="160.663" gradientUnits="userSpaceOnUse">
<stop offset="0.0210813" stop-color="#D65736"/>
<stop offset="1" stop-color="#D15D34"/>
</linearGradient>
<linearGradient id="paint5_linear_22_1897" x1="184.449" y1="264.186" x2="184.449" y2="159.29" gradientUnits="userSpaceOnUse">
<stop stop-color="#93331D"/>
<stop offset="0.996947" stop-color="#7C2618"/>
</linearGradient>
<linearGradient id="paint6_linear_22_1897" x1="205.052" y1="209.528" x2="205.052" y2="357.024" gradientUnits="userSpaceOnUse">
<stop stop-color="#682214"/>
<stop offset="0.548955" stop-color="#490B07"/>
</linearGradient>
<linearGradient id="paint7_linear_22_1897" x1="233.721" y1="220.851" x2="233.721" y2="97.9178" gradientUnits="userSpaceOnUse">
<stop stop-color="#93331D"/>
<stop offset="0.996947" stop-color="#8E2F1C"/>
</linearGradient>
<linearGradient id="paint8_linear_22_1897" x1="240.523" y1="196.746" x2="368.315" y2="155.038" gradientUnits="userSpaceOnUse">
<stop offset="0.0210813" stop-color="#B54B26"/>
<stop offset="1" stop-color="#D15D34"/>
</linearGradient>
<linearGradient id="paint9_linear_22_1897" x1="289.989" y1="246.915" x2="289.989" y2="97.9165" gradientUnits="userSpaceOnUse">
<stop offset="0.529723"/>
<stop offset="0.936345" stop-opacity="0"/>
</linearGradient>
<linearGradient id="paint10_linear_22_1897" x1="240.523" y1="196.746" x2="368.315" y2="155.038" gradientUnits="userSpaceOnUse">
<stop offset="0.0210813" stop-color="#D65736"/>
<stop offset="1" stop-color="#D15D34"/>
</linearGradient>
<linearGradient id="paint11_linear_22_1897" x1="264.293" y1="0" x2="264.293" y2="113.233" gradientUnits="userSpaceOnUse">
<stop stop-color="#56190F"/>
<stop offset="0.866224" stop-color="#420D09"/>
</linearGradient>
<linearGradient id="paint12_linear_22_1897" x1="368.458" y1="52.6797" x2="368.458" y2="115.924" gradientUnits="userSpaceOnUse">
<stop stop-color="#56190F"/>
<stop offset="0.866224" stop-color="#420D09"/>
</linearGradient>
<linearGradient id="paint13_linear_22_1897" x1="280.331" y1="185.841" x2="280.331" y2="84.4142" gradientUnits="userSpaceOnUse">
<stop offset="0.0210813" stop-color="#77AF1F"/>
<stop offset="1" stop-color="#79AF1F"/>
</linearGradient>
<linearGradient id="paint14_linear_22_1897" x1="275.273" y1="113.203" x2="182.69" y2="113.203" gradientUnits="userSpaceOnUse">
<stop stop-color="#406F1F"/>
<stop offset="1" stop-color="#518021"/>
</linearGradient>
<linearGradient id="paint15_linear_22_1897" x1="249.537" y1="53.4724" x2="183.114" y2="156.636" gradientUnits="userSpaceOnUse">
<stop offset="0.0787646" stop-opacity="0"/>
<stop offset="0.872992"/>
</linearGradient>
<linearGradient id="paint16_linear_22_1897" x1="336.14" y1="231.493" x2="336.14" y2="197.623" gradientUnits="userSpaceOnUse">
<stop stop-color="#682214"/>
<stop offset="0.548955" stop-color="#56160E"/>
</linearGradient>
<linearGradient id="paint17_linear_22_1897" x1="298.353" y1="214.558" x2="298.353" y2="180.688" gradientUnits="userSpaceOnUse">
<stop stop-color="#682214"/>
<stop offset="0.548955" stop-color="#56160E"/>
</linearGradient>
<linearGradient id="paint18_linear_22_1897" x1="304.562" y1="231.023" x2="307.645" y2="226.234" gradientUnits="userSpaceOnUse">
<stop stop-opacity="0"/>
<stop offset="1"/>
</linearGradient>
<linearGradient id="paint19_linear_22_1897" x1="266.971" y1="214.199" x2="270.054" y2="209.41" gradientUnits="userSpaceOnUse">
<stop stop-opacity="0"/>
<stop offset="1"/>
</linearGradient>
<linearGradient id="paint20_linear_22_1897" x1="-1.02919" y1="298.963" x2="110.78" y2="258.183" gradientUnits="userSpaceOnUse">
<stop stop-color="#56190F"/>
<stop offset="0.866224" stop-color="#420D09"/>
</linearGradient>
<linearGradient id="paint21_linear_22_1897" x1="62.9752" y1="270.555" x2="177.755" y2="242.548" gradientUnits="userSpaceOnUse">
<stop stop-color="#56190F"/>
<stop offset="0.866224" stop-color="#420D09"/>
</linearGradient>
<linearGradient id="paint22_linear_22_1897" x1="90.655" y1="206.822" x2="208.002" y2="206.822" gradientUnits="userSpaceOnUse">
<stop stop-color="#56190F"/>
<stop offset="0.866224" stop-color="#420D09"/>
</linearGradient>
</defs>
</svg>
