<svg width="415" height="367" viewBox="0 0 415 367" fill="none" xmlns="http://www.w3.org/2000/svg">
<g filter="url(#filter0_n_230_2)">
<path d="M341.456 199.157L362.789 189.068L350.977 183.979L344.344 182.717L341.456 199.157Z" fill="white" stroke="black" stroke-width="2"/>
<g opacity="0.25" style="mix-blend-mode:soft-light">
<path d="M353.116 203.148L364.048 207.525L371.72 206.984L353.942 199.046L353.116 203.148Z" fill="white"/>
<path d="M353.116 203.148L364.048 207.525L371.72 206.984L353.942 199.046L353.116 203.148Z" stroke="black" stroke-width="2"/>
</g>
<path d="M317.193 324.638L323.996 349.503L341.758 342.878L334.955 318.013L317.193 324.638ZM282.882 278.362L289.973 304.283L297.018 330.029L314.78 323.404L307.688 297.484L300.645 271.737L282.882 278.362ZM236.179 266.245L242.982 291.11L260.745 284.485L253.942 259.619L236.179 266.245ZM255.904 258.887L262.708 283.752L280.47 277.126L273.668 252.262L255.904 258.887Z" fill="white" stroke="black" stroke-width="2"/>
<path d="M292.211 340.285L299.027 365.149L316.936 358.525L310.121 333.661L292.211 340.285ZM257.724 294.004L264.828 319.921L271.887 345.669L289.797 339.045L282.692 313.129L275.634 287.38L257.724 294.004ZM210.711 281.875L217.527 306.739L235.436 300.114L228.62 275.25L210.711 281.875ZM230.585 274.523L237.4 299.388L255.31 292.764L248.494 267.899L230.585 274.523Z" fill="white" stroke="black" stroke-width="2"/>
<path d="M347.513 297.244L356.728 320.805L373.278 310.591L364.064 287.03L347.513 297.244ZM309.323 257.617L318.973 282.294L328.492 306.632L345.043 296.418L335.391 271.741L325.874 247.403L309.323 257.617ZM262.732 254.771L271.946 278.332L288.497 268.118L279.282 244.557L262.732 254.771ZM281.088 243.444L290.302 267.005L306.852 256.791L297.637 233.229L281.088 243.444Z" fill="white" stroke="black" stroke-width="2"/>
<path d="M70.3157 221.389L78.5393 315.937L148.285 257.216L140.062 162.668L70.3157 221.389Z" fill="white" stroke="black" stroke-width="2"/>
<path d="M150.272 256.977L234.921 295.116L226.685 200.415L142.036 162.276L150.272 256.977Z" fill="white" stroke="black" stroke-width="2"/>
<path d="M158.781 199.959L164.192 262.18L210.118 223.514L204.706 161.294L158.781 199.959Z" fill="white" stroke="black" stroke-width="2"/>
<g opacity="0.25" style="mix-blend-mode:soft-light">
<path d="M158.781 199.959L159.018 202.686L206.024 164.291L205.023 161.028L158.781 199.959Z" fill="white"/>
<path d="M158.781 199.959L159.018 202.686L206.024 164.291L205.023 161.028L158.781 199.959Z" stroke="black" stroke-width="2"/>
</g>
<path d="M212.106 223.275L267.898 248.413L262.472 186.039L206.68 160.902L212.106 223.275Z" fill="white" stroke="black" stroke-width="2"/>
<path d="M197.543 221.239L208.068 225.982L209.517 226.635L208.301 227.659L164.172 264.811L163.69 265.217L163.117 264.958L149.49 258.817L79.5701 317.683L164.285 355.853L234.205 296.988L220.999 291.038L219.55 290.386L220.766 289.361L264.895 252.209L265.377 251.804L265.95 252.062L273.141 255.302L329.095 244.632L253.497 210.569L197.543 221.239Z" fill="white" stroke="black" stroke-width="2"/>
<path d="M214.688 110.093L195.481 219.596L252.756 208.675L271.962 99.1707L214.688 110.093Z" fill="white" stroke="black" stroke-width="2"/>
<path d="M254.74 208.934L331.633 243.581L350.852 134.004L273.96 99.3582L254.74 208.934Z" fill="white" stroke="black" stroke-width="2"/>
<g opacity="0.25" style="mix-blend-mode:soft-light">
<path d="M268.481 99.8324L249.021 210.761L248.705 212.583L322.594 245.872L329.095 244.634L253.213 210.437L252.505 210.118L252.638 209.352L271.96 99.1693L268.481 99.8324Z" fill="white"/>
<path d="M268.481 99.8324L249.021 210.761L248.705 212.583L322.594 245.872L329.095 244.634L253.213 210.437L252.505 210.118L252.638 209.352L271.96 99.1693L268.481 99.8324Z" stroke="black" stroke-width="2"/>
</g>
<path d="M254.74 208.934L331.633 243.581L350.852 134.004L273.96 99.3582L254.74 208.934Z" fill="white" stroke="black" stroke-width="2"/>
<path d="M278.096 104.292L295.668 111.813L299.842 87.2061L282.27 79.6846L278.096 104.292ZM243.69 60.9932L262.428 69.0156L280.723 76.8467L284.898 52.2393L266.159 44.2178L247.865 36.3857L243.69 60.9932ZM228.747 26.0264L246.318 33.5479L250.492 8.94043L232.921 1.41797L228.747 26.0264Z" fill="white" stroke="black" stroke-width="2"/>
<path d="M323.874 106.983L341.445 114.505L345.62 89.8975L328.049 82.376L323.874 106.983ZM347.854 88.6787L366.593 96.7012L384.888 104.532L389.062 79.9238L370.324 71.9033L352.029 64.0713L347.854 88.6787ZM391.298 78.7061L408.869 86.2275L413.043 61.6201L395.471 54.0977L391.298 78.7061Z" fill="white" stroke="black" stroke-width="2"/>
<g opacity="0.5" style="mix-blend-mode:overlay">
<path d="M327.008 241.379L331.636 243.559L350.852 134.003L346.841 132.196L327.008 241.379Z" fill="white"/>
<path d="M327.008 241.379L331.636 243.559L350.852 134.003L346.841 132.196L327.008 241.379Z" stroke="black" stroke-width="2"/>
</g>
<g opacity="0.3" style="mix-blend-mode:overlay">
<path d="M142.421 166.706L177.346 181.715L180.077 179.415L142.035 162.275L142.421 166.706Z" fill="white"/>
<path d="M142.421 166.706L177.346 181.715L180.077 179.415L142.035 162.275L142.421 166.706Z" stroke="black" stroke-width="2"/>
</g>
<g opacity="0.25" style="mix-blend-mode:soft-light">
<path d="M70.3162 221.388L77.3337 302.078H80.5876L73.7849 223.657L73.74 223.14L74.1375 222.806L140.435 166.959L140.062 162.667L70.3162 221.388Z" fill="white"/>
<path d="M70.3162 221.388L77.3337 302.078H80.5876L73.7849 223.657L73.74 223.14L74.1375 222.806L140.435 166.959L140.062 162.667L70.3162 221.388Z" stroke="black" stroke-width="2"/>
</g>
<path d="M196.016 86.1699L183.912 155.186L197.196 153.36L202.462 123.334L202.585 122.628L203.293 122.519L268.865 112.349L269.155 112.304L269.424 112.422L357.085 151.282L357.8 151.6L357.665 152.369L352.395 182.412L364.45 187.606L376.852 116.908L275.15 71.084L196.016 86.1699Z" fill="white" stroke="black" stroke-width="2"/>
<path d="M204.303 124.383L199.093 154.124L203.29 163.566L209.09 131.142L209.216 130.439L209.921 130.329L267.888 121.335L268.178 121.29L268.447 121.41L348.128 156.73L348.843 157.046L348.708 157.817L344.689 180.746L350.465 181.846L355.56 152.791L268.887 114.372L204.303 124.383Z" fill="white" stroke="black" stroke-width="2"/>
<path d="M186.01 156.916L201.648 164.795L197.447 155.344L186.01 156.916Z" fill="white" stroke="black" stroke-width="2"/>
<path d="M196.017 86.1699L183.913 155.186L197.196 153.36L202.457 123.333L202.581 122.627L203.289 122.517L268.139 112.465L274.084 71.2871L196.017 86.1699Z" fill="white" stroke="black" stroke-width="2"/>
<g opacity="0.3" style="mix-blend-mode:overlay">
<path d="M274.986 79.0283L371.132 120.883L371.855 121.198L371.717 121.976L360.298 185.816L364.45 187.606L376.852 116.908L276.073 71.5L274.986 79.0283Z" fill="white"/>
<path d="M274.986 79.0283L371.132 120.883L371.855 121.198L371.717 121.976L360.298 185.816L364.45 187.606L376.852 116.908L276.073 71.5L274.986 79.0283Z" stroke="black" stroke-width="2"/>
</g>
<g opacity="0.25" style="mix-blend-mode:soft-light">
<path d="M196.017 86.1699L183.913 155.186L189.848 154.37L199.727 91.9922L199.84 91.2842L200.547 91.1631L273.003 78.7773L274.084 71.2871L196.017 86.1699Z" fill="white"/>
<path d="M196.017 86.1699L183.913 155.186L189.848 154.37L199.727 91.9922L199.84 91.2842L200.547 91.1631L273.003 78.7773L274.084 71.2871L196.017 86.1699Z" stroke="black" stroke-width="2"/>
</g>
<path d="M299.043 220.64L320.704 230.4L373.292 207.686L353.188 198.709L299.043 220.64Z" fill="white" stroke="black" stroke-width="2"/>
<path d="M261.257 203.705L282.918 213.465L335.506 190.751L315.402 181.773L261.257 203.705Z" fill="white" stroke="black" stroke-width="2"/>
<g opacity="0.25" style="mix-blend-mode:soft-light">
<path d="M292.444 225.887L314.028 235.643L318.812 231.74L296.708 221.781L292.444 225.887Z" fill="white"/>
<path d="M292.444 225.887L314.028 235.643L318.812 231.74L296.708 221.781L292.444 225.887Z" stroke="black" stroke-width="2"/>
</g>
<g opacity="0.25" style="mix-blend-mode:soft-light">
<path d="M254.851 209.063L276.436 218.819L281.22 214.916L259.116 204.957L254.851 209.063Z" fill="white"/>
<path d="M254.851 209.063L276.436 218.819L281.22 214.916L259.116 204.957L254.851 209.063Z" stroke="black" stroke-width="2"/>
</g>
<path d="M285.918 122.025L297.18 127.018L295.774 117.033L285.918 122.025Z" fill="white" stroke="black" stroke-width="2"/>
<path d="M228.939 79.8944L234.446 87.5741L239.468 77.8866L228.939 79.8944Z" fill="white" stroke="black" stroke-width="2"/>
<g opacity="0.25" style="mix-blend-mode:soft-light">
<path d="M81.8933 229.358L85.1033 243.483L93.4109 238.74L92.7 225.76L81.8933 229.358Z" fill="white"/>
<path d="M81.8933 229.358L85.1033 243.483L93.4109 238.74L92.7 225.76L81.8933 229.358Z" stroke="black" stroke-width="2"/>
</g>
<g opacity="0.25" style="mix-blend-mode:soft-light">
<path d="M96.8606 217.239L100.369 224.942L106.087 219.581L100.786 211.92L96.8606 217.239Z" fill="white"/>
<path d="M96.8606 217.239L100.369 224.942L106.087 219.581L100.786 211.92L96.8606 217.239Z" stroke="black" stroke-width="2"/>
</g>
<g opacity="0.25" style="mix-blend-mode:soft-light">
<path d="M173.91 233.536L177.419 241.239L183.136 235.878L177.836 228.217L173.91 233.536Z" fill="white"/>
<path d="M173.91 233.536L177.419 241.239L183.136 235.878L177.836 228.217L173.91 233.536Z" stroke="black" stroke-width="2"/>
</g>
<path d="M210.934 132.196L209.538 140.002L266.851 132.347L267.129 132.31L267.385 132.422L345.161 166.471L346.602 158.24L267.906 123.357L210.934 132.196Z" fill="white" stroke="black" stroke-width="2"/>
<path d="M210.934 132.196L209.537 140.003L266.126 132.444L267.713 123.387L210.934 132.196Z" fill="white" stroke="black" stroke-width="2"/>
<path d="M227.57 129.615L226.701 150.485L240.354 145.861L244.056 127.057L227.57 129.615Z" fill="white" stroke="black" stroke-width="2"/>
<path d="M1.20093 301.424L18.5818 314.167L26.7878 292.106L9.40405 279.356L1.20093 301.424ZM37.8533 268.077L29.1892 291.386L46.5818 304.134L55.0466 281.357L63.7117 258.045L46.323 245.306L37.8533 268.077ZM66.1121 257.326L102.652 284.111L110.855 262.041L74.3191 235.265L66.1121 257.326Z" fill="white" stroke="black" stroke-width="2"/>
<g opacity="0.25" style="mix-blend-mode:soft-light">
<path d="M72.5515 239.917L109.355 266.078L110.855 262.041L74.3132 235.26L72.5515 239.917Z" fill="white"/>
<path d="M72.5515 239.917L109.355 266.078L110.855 262.041L74.3132 235.26L72.5515 239.917Z" stroke="black" stroke-width="2"/>
</g>
<g opacity="0.25" style="mix-blend-mode:soft-light">
<path d="M29.1887 291.386L32.2434 293.625L47.4983 253.068L47.9426 251.886L48.9915 252.589L62.3997 261.576L63.7112 258.045L46.3225 245.306L29.1887 291.386Z" fill="white"/>
<path d="M29.1887 291.386L32.2434 293.625L47.4983 253.068L47.9426 251.886L48.9915 252.589L62.3997 261.576L63.7112 258.045L46.3225 245.306L29.1887 291.386Z" stroke="black" stroke-width="2"/>
</g>
<g opacity="0.25" style="mix-blend-mode:soft-light">
<path d="M1.20093 301.425L3.99976 303.477L10.3875 285.79L10.8455 284.524L11.9255 285.328L25.5398 295.459L26.7878 292.106L9.40405 279.356L1.20093 301.425Z" fill="white"/>
<path d="M1.20093 301.425L3.99976 303.477L10.3875 285.79L10.8455 284.524L11.9255 285.328L25.5398 295.459L26.7878 292.106L9.40405 279.356L1.20093 301.425Z" stroke="black" stroke-width="2"/>
</g>
<path d="M64.9226 273.28L80.8162 288.277L91.3308 267.5L75.4343 252.495L64.9226 273.28ZM104.907 245.089V245.09L93.7898 267.071L109.694 282.073L120.544 260.621L131.661 238.642L115.759 223.648L104.907 245.089ZM134.12 238.211L167.518 269.718L178.031 248.933L144.635 217.435L134.12 238.211Z" fill="white" stroke="black" stroke-width="2"/>
<g opacity="0.25" style="mix-blend-mode:soft-light">
<path d="M142.39 221.793L176.118 252.715L178.031 248.933L144.629 217.43L142.39 221.793Z" fill="white"/>
<path d="M142.39 221.793L176.118 252.715L178.031 248.933L144.629 217.43L142.39 221.793Z" stroke="black" stroke-width="2"/>
</g>
<g opacity="0.25" style="mix-blend-mode:soft-light">
<path d="M93.7903 267.07L96.595 269.717L116.103 231.525L116.684 230.387L117.649 231.225L129.99 241.946L131.661 238.64L115.759 223.647L93.7903 267.07Z" fill="white"/>
<path d="M93.7903 267.07L96.595 269.717L116.103 231.525L116.684 230.387L117.649 231.225L129.99 241.946L131.661 238.64L115.759 223.647L93.7903 267.07Z" stroke="black" stroke-width="2"/>
</g>
<g opacity="0.25" style="mix-blend-mode:soft-light">
<path d="M64.9226 273.279L67.4939 275.706L75.7312 259.031L76.3347 257.81L77.3191 258.752L89.7429 270.638L91.3308 267.5L75.4343 252.495L64.9226 273.279Z" fill="white"/>
<path d="M64.9226 273.279L67.4939 275.706L75.7312 259.031L76.3347 257.81L77.3191 258.752L89.7429 270.638L91.3308 267.5L75.4343 252.495L64.9226 273.279Z" stroke="black" stroke-width="2"/>
</g>
<path d="M166.924 196.4L191.761 236.629L206.76 219.695L181.923 179.474L166.924 196.4ZM137.105 194.494V194.495L121.214 212.437L133.057 231.618L148.549 214.128L164.441 196.186L152.597 177.014L137.105 194.494ZM91.8972 209.976L103.732 229.149L118.731 212.223L106.896 193.041L91.8972 209.976Z" fill="white" stroke="black" stroke-width="2"/>
<g opacity="0.25" style="mix-blend-mode:soft-light">
<path d="M178.769 182.98L204.063 222.741L206.76 219.695L181.919 179.467L178.769 182.98Z" fill="white"/>
<path d="M178.769 182.98L204.063 222.741L206.76 219.695L181.919 179.467L178.769 182.98Z" stroke="black" stroke-width="2"/>
</g>
<g opacity="0.25" style="mix-blend-mode:soft-light">
<path d="M121.214 212.437L123.327 215.86L151.114 184.752L151.971 183.792L152.69 184.861L162.089 198.842L164.44 196.186L152.596 177.013L121.214 212.437Z" fill="white"/>
<path d="M121.214 212.437L123.327 215.86L151.114 184.752L151.971 183.792L152.69 184.861L162.089 198.842L164.44 196.186L152.596 177.013L121.214 212.437Z" stroke="black" stroke-width="2"/>
</g>
<g opacity="0.25" style="mix-blend-mode:soft-light">
<path d="M91.8967 209.976L93.8362 213.117L105.682 199.472L106.58 198.437L107.291 199.607L116.498 214.742L118.732 212.223L106.896 193.042L91.8967 209.976Z" fill="white"/>
<path d="M91.8967 209.976L93.8362 213.117L105.682 199.472L106.58 198.437L107.291 199.607L116.498 214.742L118.732 212.223L106.896 193.042L91.8967 209.976Z" stroke="black" stroke-width="2"/>
</g>
<g opacity="0.25" style="mix-blend-mode:soft-light">
<path d="M315.33 186.213L326.261 190.59L333.934 190.049L316.156 182.11L315.33 186.213Z" fill="white"/>
<path d="M315.33 186.213L326.261 190.59L333.934 190.049L316.156 182.11L315.33 186.213Z" stroke="black" stroke-width="2"/>
</g>
<g opacity="0.25" style="mix-blend-mode:soft-light">
<path d="M353.116 203.148L364.048 207.525L371.72 206.984L353.942 199.046L353.116 203.148Z" fill="white"/>
<path d="M353.116 203.148L364.048 207.525L371.72 206.984L353.942 199.046L353.116 203.148Z" stroke="black" stroke-width="2"/>
</g>
<g opacity="0.25" style="mix-blend-mode:soft-light">
<path d="M309.323 257.616L310.25 259.987L323.399 252.221L324.399 251.63L324.835 252.707L338.667 286.946H341.339L325.873 247.403L309.323 257.616Z" fill="white"/>
<path d="M309.323 257.616L310.25 259.987L323.399 252.221L324.399 251.63L324.835 252.707L338.667 286.946H341.339L325.873 247.403L309.323 257.616Z" stroke="black" stroke-width="2"/>
</g>
<g opacity="0.3" style="mix-blend-mode:overlay">
<path d="M321.334 123.46L329.93 126.74L331.652 116.976L323.73 113.262L321.334 123.46Z" fill="white"/>
<path d="M321.334 123.46L329.93 126.74L331.652 116.976L323.73 113.262L321.334 123.46Z" stroke="black" stroke-width="2"/>
</g>
<g opacity="0.25" style="mix-blend-mode:soft-light">
<path d="M208.734 102.423L206.857 110.415L214.284 109.107L215.632 101.466L208.734 102.423Z" fill="white"/>
<path d="M208.734 102.423L206.857 110.415L214.284 109.107L215.632 101.466L208.734 102.423Z" stroke="black" stroke-width="2"/>
</g>
<g opacity="0.2" style="mix-blend-mode:overlay">
<path d="M353.146 127.468L358.189 129.393L359.215 123.575L354.572 121.398L353.146 127.468Z" fill="white"/>
<path d="M353.146 127.468L358.189 129.393L359.215 123.575L354.572 121.398L353.146 127.468Z" stroke="black" stroke-width="2"/>
</g>
</g>
<defs>
<filter id="filter0_n_230_2" x="0.000244141" y="0" width="414.16" height="366.466" filterUnits="userSpaceOnUse" color-interpolation-filters="sRGB">
<feFlood flood-opacity="0" result="BackgroundImageFix"/>
<feBlend mode="normal" in="SourceGraphic" in2="BackgroundImageFix" result="shape"/>
<feTurbulence type="fractalNoise" baseFrequency="0.25 0.25" stitchTiles="stitch" numOctaves="3" result="noise" seed="1604" />
<feColorMatrix in="noise" type="luminanceToAlpha" result="alphaNoise" />
<feComponentTransfer in="alphaNoise" result="coloredNoise1">
<feFuncA type="discrete" tableValues="1 1 1 1 1 1 1 1 1 1 1 1 1 1 1 1 1 1 1 1 1 1 1 1 1 1 1 1 1 1 1 1 1 1 1 1 1 1 1 1 1 1 1 1 1 1 1 1 1 1 1 0 0 0 0 0 0 0 0 0 0 0 0 0 0 0 0 0 0 0 0 0 0 0 0 0 0 0 0 0 0 0 0 0 0 0 0 0 0 0 0 0 0 0 0 0 0 0 0 0 "/>
</feComponentTransfer>
<feComposite operator="in" in2="shape" in="coloredNoise1" result="noise1Clipped" />
<feFlood flood-color="rgba(0, 0, 0, 0.25)" result="color1Flood" />
<feComposite operator="in" in2="noise1Clipped" in="color1Flood" result="color1" />
<feMerge result="effect1_noise_230_2">
<feMergeNode in="shape" />
<feMergeNode in="color1" />
</feMerge>
</filter>
</defs>
</svg>
