<svg width="415" height="367" viewBox="0 0 415 367" fill="none" xmlns="http://www.w3.org/2000/svg">
<g filter="url(#filter0_n_225_118)">
<path d="M341.456 199.157L362.789 189.068L350.977 183.979L344.344 182.717L341.456 199.157Z" fill="url(#paint0_linear_225_118)" style="mix-blend-mode:soft-light"/>
<path d="M341.456 199.157L362.789 189.068L350.977 183.979L344.344 182.717L341.456 199.157Z" stroke="black" stroke-width="2"/>
<g opacity="0.25" style="mix-blend-mode:soft-light">
<path d="M353.116 203.148L364.048 207.525L371.721 206.984L353.943 199.046L353.116 203.148Z" fill="url(#paint1_linear_225_118)" style="mix-blend-mode:soft-light"/>
<path d="M353.116 203.148L364.048 207.525L371.721 206.984L353.943 199.046L353.116 203.148Z" stroke="black" stroke-width="2"/>
</g>
<path d="M317.194 324.638L323.996 349.503L341.758 342.878L334.955 318.013L317.194 324.638ZM282.882 278.362L289.974 304.283L297.019 330.029L314.781 323.404L307.689 297.484L300.646 271.737L282.882 278.362ZM236.18 266.245L242.983 291.11L260.745 284.485L253.943 259.619L236.18 266.245ZM255.905 258.887L262.708 283.752L280.471 277.126L273.668 252.262L255.905 258.887Z" fill="url(#paint2_linear_225_118)" style="mix-blend-mode:soft-light"/>
<path d="M317.194 324.638L323.996 349.503L341.758 342.878L334.955 318.013L317.194 324.638ZM282.882 278.362L289.974 304.283L297.019 330.029L314.781 323.404L307.689 297.484L300.646 271.737L282.882 278.362ZM236.18 266.245L242.983 291.11L260.745 284.485L253.943 259.619L236.18 266.245ZM255.905 258.887L262.708 283.752L280.471 277.126L273.668 252.262L255.905 258.887Z" stroke="black" stroke-width="2"/>
<path d="M292.211 340.285L299.027 365.149L316.936 358.525L310.121 333.661L292.211 340.285ZM257.724 294.004L264.828 319.921L271.887 345.669L289.797 339.045L282.692 313.129L275.634 287.38L257.724 294.004ZM210.711 281.875L217.527 306.739L235.436 300.114L228.62 275.25L210.711 281.875ZM230.585 274.523L237.4 299.388L255.31 292.764L248.494 267.899L230.585 274.523Z" fill="url(#paint3_linear_225_118)" style="mix-blend-mode:soft-light"/>
<path d="M292.211 340.285L299.027 365.149L316.936 358.525L310.121 333.661L292.211 340.285ZM257.724 294.004L264.828 319.921L271.887 345.669L289.797 339.045L282.692 313.129L275.634 287.38L257.724 294.004ZM210.711 281.875L217.527 306.739L235.436 300.114L228.62 275.25L210.711 281.875ZM230.585 274.523L237.4 299.388L255.31 292.764L248.494 267.899L230.585 274.523Z" stroke="black" stroke-width="2"/>
<path d="M347.514 297.244L356.729 320.805L373.279 310.591L364.065 287.03L347.514 297.244ZM309.323 257.617L318.974 282.294L328.492 306.632L345.043 296.418L335.392 271.741L325.874 247.403L309.323 257.617ZM262.733 254.771L271.947 278.332L288.497 268.118L279.282 244.557L262.733 254.771ZM281.088 243.444L290.303 267.005L306.853 256.791L297.638 233.229L281.088 243.444Z" fill="url(#paint4_linear_225_118)" style="mix-blend-mode:soft-light"/>
<path d="M347.514 297.244L356.729 320.805L373.279 310.591L364.065 287.03L347.514 297.244ZM309.323 257.617L318.974 282.294L328.492 306.632L345.043 296.418L335.392 271.741L325.874 247.403L309.323 257.617ZM262.733 254.771L271.947 278.332L288.497 268.118L279.282 244.557L262.733 254.771ZM281.088 243.444L290.303 267.005L306.853 256.791L297.638 233.229L281.088 243.444Z" stroke="black" stroke-width="2"/>
<path d="M70.3157 221.389L78.5393 315.937L148.285 257.216L140.062 162.668L70.3157 221.389Z" fill="url(#paint5_linear_225_118)" style="mix-blend-mode:soft-light"/>
<path d="M70.3157 221.389L78.5393 315.937L148.285 257.216L140.062 162.668L70.3157 221.389Z" stroke="black" stroke-width="2"/>
<path d="M150.272 256.977L234.921 295.116L226.685 200.415L142.036 162.276L150.272 256.977Z" fill="url(#paint6_linear_225_118)" style="mix-blend-mode:soft-light"/>
<path d="M150.272 256.977L234.921 295.116L226.685 200.415L142.036 162.276L150.272 256.977Z" stroke="black" stroke-width="2"/>
<path d="M158.781 199.959L164.192 262.18L210.118 223.514L204.706 161.294L158.781 199.959Z" fill="url(#paint7_linear_225_118)" style="mix-blend-mode:soft-light"/>
<path d="M158.781 199.959L164.192 262.18L210.118 223.514L204.706 161.294L158.781 199.959Z" stroke="black" stroke-width="2"/>
<g opacity="0.25" style="mix-blend-mode:soft-light">
<path d="M158.781 199.959L159.018 202.686L206.024 164.291L205.023 161.028L158.781 199.959Z" fill="url(#paint8_linear_225_118)" style="mix-blend-mode:soft-light"/>
<path d="M158.781 199.959L159.018 202.686L206.024 164.291L205.023 161.028L158.781 199.959Z" stroke="black" stroke-width="2"/>
</g>
<path d="M212.106 223.275L267.898 248.413L262.472 186.039L206.68 160.902L212.106 223.275Z" fill="url(#paint9_linear_225_118)" style="mix-blend-mode:soft-light"/>
<path d="M212.106 223.275L267.898 248.413L262.472 186.039L206.68 160.902L212.106 223.275Z" stroke="black" stroke-width="2"/>
<path d="M197.543 221.239L208.069 225.982L209.518 226.635L208.301 227.659L164.172 264.811L163.691 265.217L163.117 264.958L149.49 258.817L79.5706 317.683L164.285 355.853L234.205 296.988L220.999 291.038L219.55 290.386L220.767 289.361L264.896 252.209L265.377 251.804L265.95 252.062L273.142 255.302L329.096 244.632L253.497 210.569L197.543 221.239Z" fill="url(#paint10_linear_225_118)" style="mix-blend-mode:soft-light"/>
<path d="M197.543 221.239L208.069 225.982L209.518 226.635L208.301 227.659L164.172 264.811L163.691 265.217L163.117 264.958L149.49 258.817L79.5706 317.683L164.285 355.853L234.205 296.988L220.999 291.038L219.55 290.386L220.767 289.361L264.896 252.209L265.377 251.804L265.95 252.062L273.142 255.302L329.096 244.632L253.497 210.569L197.543 221.239Z" stroke="black" stroke-width="2"/>
<path d="M214.688 110.093L195.481 219.596L252.756 208.675L271.962 99.1707L214.688 110.093Z" fill="url(#paint11_linear_225_118)" style="mix-blend-mode:soft-light"/>
<path d="M214.688 110.093L195.481 219.596L252.756 208.675L271.962 99.1707L214.688 110.093Z" stroke="black" stroke-width="2"/>
<path d="M254.74 208.934L331.633 243.581L350.852 134.004L273.96 99.3582L254.74 208.934Z" fill="url(#paint12_linear_225_118)" style="mix-blend-mode:soft-light"/>
<path d="M254.74 208.934L331.633 243.581L350.852 134.004L273.96 99.3582L254.74 208.934Z" stroke="black" stroke-width="2"/>
<g opacity="0.25" style="mix-blend-mode:soft-light">
<path d="M268.481 99.8324L249.021 210.761L248.704 212.583L322.594 245.872L329.095 244.634L253.212 210.437L252.504 210.118L252.638 209.352L271.959 99.1693L268.481 99.8324Z" fill="url(#paint13_linear_225_118)" style="mix-blend-mode:soft-light"/>
<path d="M268.481 99.8324L249.021 210.761L248.704 212.583L322.594 245.872L329.095 244.634L253.212 210.437L252.504 210.118L252.638 209.352L271.959 99.1693L268.481 99.8324Z" stroke="black" stroke-width="2"/>
</g>
<path d="M254.74 208.934L331.633 243.581L350.852 134.004L273.96 99.3582L254.74 208.934Z" fill="url(#paint14_linear_225_118)" style="mix-blend-mode:soft-light"/>
<path d="M254.74 208.934L331.633 243.581L350.852 134.004L273.96 99.3582L254.74 208.934Z" stroke="black" stroke-width="2"/>
<path d="M278.096 104.292L295.667 111.813L299.841 87.2061L282.27 79.6846L278.096 104.292ZM243.69 60.9932L262.428 69.0156L280.723 76.8467L284.898 52.2393L266.158 44.2178L247.865 36.3857L243.69 60.9932ZM228.746 26.0264L246.318 33.5479L250.491 8.94043L232.92 1.41797L228.746 26.0264Z" fill="url(#paint15_linear_225_118)" style="mix-blend-mode:soft-light"/>
<path d="M278.096 104.292L295.667 111.813L299.841 87.2061L282.27 79.6846L278.096 104.292ZM243.69 60.9932L262.428 69.0156L280.723 76.8467L284.898 52.2393L266.158 44.2178L247.865 36.3857L243.69 60.9932ZM228.746 26.0264L246.318 33.5479L250.491 8.94043L232.92 1.41797L228.746 26.0264Z" stroke="black" stroke-width="2"/>
<path d="M323.874 106.983L341.445 114.505L345.62 89.8975L328.049 82.376L323.874 106.983ZM347.854 88.6787L366.593 96.7012L384.888 104.532L389.062 79.9238L370.324 71.9033L352.029 64.0713L347.854 88.6787ZM391.298 78.7061L408.869 86.2275L413.043 61.6201L395.471 54.0977L391.298 78.7061Z" fill="url(#paint16_linear_225_118)" style="mix-blend-mode:soft-light"/>
<path d="M323.874 106.983L341.445 114.505L345.62 89.8975L328.049 82.376L323.874 106.983ZM347.854 88.6787L366.593 96.7012L384.888 104.532L389.062 79.9238L370.324 71.9033L352.029 64.0713L347.854 88.6787ZM391.298 78.7061L408.869 86.2275L413.043 61.6201L395.471 54.0977L391.298 78.7061Z" stroke="black" stroke-width="2"/>
<g opacity="0.5" style="mix-blend-mode:overlay">
<path d="M327.008 241.379L331.636 243.559L350.852 134.003L346.841 132.196L327.008 241.379Z" fill="url(#paint17_linear_225_118)" style="mix-blend-mode:soft-light"/>
<path d="M327.008 241.379L331.636 243.559L350.852 134.003L346.841 132.196L327.008 241.379Z" stroke="black" stroke-width="2"/>
</g>
<g opacity="0.3" style="mix-blend-mode:overlay">
<path d="M142.421 166.706L177.346 181.715L180.077 179.415L142.035 162.275L142.421 166.706Z" fill="url(#paint18_linear_225_118)" style="mix-blend-mode:soft-light"/>
<path d="M142.421 166.706L177.346 181.715L180.077 179.415L142.035 162.275L142.421 166.706Z" stroke="black" stroke-width="2"/>
</g>
<g opacity="0.25" style="mix-blend-mode:soft-light">
<path d="M70.3162 221.388L77.3337 302.078H80.5876L73.7849 223.657L73.74 223.14L74.1375 222.806L140.435 166.959L140.062 162.667L70.3162 221.388Z" fill="url(#paint19_linear_225_118)" style="mix-blend-mode:soft-light"/>
<path d="M70.3162 221.388L77.3337 302.078H80.5876L73.7849 223.657L73.74 223.14L74.1375 222.806L140.435 166.959L140.062 162.667L70.3162 221.388Z" stroke="black" stroke-width="2"/>
</g>
<path d="M196.017 86.1699L183.912 155.186L197.197 153.36L202.462 123.334L202.585 122.628L203.293 122.519L268.865 112.349L269.156 112.304L269.424 112.422L357.085 151.282L357.8 151.6L357.665 152.369L352.396 182.412L364.45 187.606L376.853 116.908L275.151 71.084L196.017 86.1699Z" fill="url(#paint20_linear_225_118)" style="mix-blend-mode:soft-light"/>
<path d="M196.017 86.1699L183.912 155.186L197.197 153.36L202.462 123.334L202.585 122.628L203.293 122.519L268.865 112.349L269.156 112.304L269.424 112.422L357.085 151.282L357.8 151.6L357.665 152.369L352.396 182.412L364.45 187.606L376.853 116.908L275.151 71.084L196.017 86.1699Z" stroke="black" stroke-width="2"/>
<path d="M204.303 124.383L199.093 154.124L203.29 163.566L209.09 131.142L209.216 130.439L209.921 130.329L267.888 121.335L268.178 121.29L268.447 121.41L348.128 156.73L348.843 157.046L348.708 157.817L344.689 180.746L350.465 181.846L355.56 152.791L268.887 114.372L204.303 124.383Z" fill="url(#paint21_linear_225_118)" style="mix-blend-mode:soft-light"/>
<path d="M204.303 124.383L199.093 154.124L203.29 163.566L209.09 131.142L209.216 130.439L209.921 130.329L267.888 121.335L268.178 121.29L268.447 121.41L348.128 156.73L348.843 157.046L348.708 157.817L344.689 180.746L350.465 181.846L355.56 152.791L268.887 114.372L204.303 124.383Z" stroke="black" stroke-width="2"/>
<path d="M186.01 156.916L201.648 164.795L197.447 155.344L186.01 156.916Z" fill="url(#paint22_linear_225_118)" style="mix-blend-mode:soft-light"/>
<path d="M186.01 156.916L201.648 164.795L197.447 155.344L186.01 156.916Z" stroke="black" stroke-width="2"/>
<path d="M196.017 86.1699L183.913 155.186L197.196 153.36L202.457 123.333L202.581 122.627L203.289 122.517L268.139 112.465L274.084 71.2871L196.017 86.1699Z" fill="url(#paint23_linear_225_118)" style="mix-blend-mode:soft-light"/>
<path d="M196.017 86.1699L183.913 155.186L197.196 153.36L202.457 123.333L202.581 122.627L203.289 122.517L268.139 112.465L274.084 71.2871L196.017 86.1699Z" stroke="black" stroke-width="2"/>
<g opacity="0.3" style="mix-blend-mode:overlay">
<path d="M274.987 79.0283L371.132 120.883L371.856 121.198L371.717 121.976L360.298 185.816L364.45 187.606L376.853 116.908L276.073 71.5L274.987 79.0283Z" fill="url(#paint24_linear_225_118)" style="mix-blend-mode:soft-light"/>
<path d="M274.987 79.0283L371.132 120.883L371.856 121.198L371.717 121.976L360.298 185.816L364.45 187.606L376.853 116.908L276.073 71.5L274.987 79.0283Z" stroke="black" stroke-width="2"/>
</g>
<g opacity="0.25" style="mix-blend-mode:soft-light">
<path d="M196.017 86.1699L183.913 155.186L189.848 154.37L199.727 91.9922L199.84 91.2842L200.547 91.1631L273.003 78.7773L274.084 71.2871L196.017 86.1699Z" fill="url(#paint25_linear_225_118)" style="mix-blend-mode:soft-light"/>
<path d="M196.017 86.1699L183.913 155.186L189.848 154.37L199.727 91.9922L199.84 91.2842L200.547 91.1631L273.003 78.7773L274.084 71.2871L196.017 86.1699Z" stroke="black" stroke-width="2"/>
</g>
<path d="M299.043 220.64L320.704 230.4L373.292 207.686L353.189 198.709L299.043 220.64Z" fill="url(#paint26_linear_225_118)" style="mix-blend-mode:soft-light"/>
<path d="M299.043 220.64L320.704 230.4L373.292 207.686L353.189 198.709L299.043 220.64Z" stroke="black" stroke-width="2"/>
<path d="M261.257 203.705L282.918 213.465L335.506 190.751L315.402 181.773L261.257 203.705Z" fill="url(#paint27_linear_225_118)" style="mix-blend-mode:soft-light"/>
<path d="M261.257 203.705L282.918 213.465L335.506 190.751L315.402 181.773L261.257 203.705Z" stroke="black" stroke-width="2"/>
<g opacity="0.25" style="mix-blend-mode:soft-light">
<path d="M292.444 225.887L314.028 235.643L318.812 231.74L296.707 221.781L292.444 225.887Z" fill="url(#paint28_linear_225_118)" style="mix-blend-mode:soft-light"/>
<path d="M292.444 225.887L314.028 235.643L318.812 231.74L296.707 221.781L292.444 225.887Z" stroke="black" stroke-width="2"/>
</g>
<g opacity="0.25" style="mix-blend-mode:soft-light">
<path d="M254.851 209.063L276.436 218.819L281.22 214.916L259.116 204.957L254.851 209.063Z" fill="url(#paint29_linear_225_118)" style="mix-blend-mode:soft-light"/>
<path d="M254.851 209.063L276.436 218.819L281.22 214.916L259.116 204.957L254.851 209.063Z" stroke="black" stroke-width="2"/>
</g>
<path d="M285.918 122.025L297.18 127.018L295.774 117.033L285.918 122.025Z" fill="url(#paint30_linear_225_118)" style="mix-blend-mode:soft-light"/>
<path d="M285.918 122.025L297.18 127.018L295.774 117.033L285.918 122.025Z" stroke="black" stroke-width="2"/>
<path d="M228.939 79.8944L234.446 87.5741L239.468 77.8866L228.939 79.8944Z" fill="url(#paint31_linear_225_118)" style="mix-blend-mode:soft-light"/>
<path d="M228.939 79.8944L234.446 87.5741L239.468 77.8866L228.939 79.8944Z" stroke="black" stroke-width="2"/>
<g opacity="0.25" style="mix-blend-mode:soft-light">
<path d="M81.8933 229.358L85.1033 243.483L93.4109 238.74L92.7 225.76L81.8933 229.358Z" fill="url(#paint32_linear_225_118)" style="mix-blend-mode:soft-light"/>
<path d="M81.8933 229.358L85.1033 243.483L93.4109 238.74L92.7 225.76L81.8933 229.358Z" stroke="black" stroke-width="2"/>
</g>
<g opacity="0.25" style="mix-blend-mode:soft-light">
<path d="M96.8606 217.239L100.369 224.942L106.087 219.581L100.786 211.92L96.8606 217.239Z" fill="url(#paint33_linear_225_118)" style="mix-blend-mode:soft-light"/>
<path d="M96.8606 217.239L100.369 224.942L106.087 219.581L100.786 211.92L96.8606 217.239Z" stroke="black" stroke-width="2"/>
</g>
<g opacity="0.25" style="mix-blend-mode:soft-light">
<path d="M173.91 233.536L177.419 241.239L183.136 235.878L177.836 228.217L173.91 233.536Z" fill="url(#paint34_linear_225_118)" style="mix-blend-mode:soft-light"/>
<path d="M173.91 233.536L177.419 241.239L183.136 235.878L177.836 228.217L173.91 233.536Z" stroke="black" stroke-width="2"/>
</g>
<path d="M210.934 132.196L209.537 140.002L266.851 132.347L267.128 132.31L267.385 132.422L345.16 166.471L346.602 158.24L267.906 123.357L210.934 132.196Z" fill="url(#paint35_linear_225_118)" style="mix-blend-mode:soft-light"/>
<path d="M210.934 132.196L209.537 140.002L266.851 132.347L267.128 132.31L267.385 132.422L345.16 166.471L346.602 158.24L267.906 123.357L210.934 132.196Z" stroke="black" stroke-width="2"/>
<path d="M210.934 132.196L209.537 140.003L266.126 132.444L267.713 123.387L210.934 132.196Z" fill="url(#paint36_linear_225_118)" style="mix-blend-mode:soft-light"/>
<path d="M210.934 132.196L209.537 140.003L266.126 132.444L267.713 123.387L210.934 132.196Z" stroke="black" stroke-width="2"/>
<path d="M227.57 129.615L226.701 150.485L240.354 145.861L244.056 127.057L227.57 129.615Z" fill="url(#paint37_linear_225_118)" style="mix-blend-mode:soft-light"/>
<path d="M227.57 129.615L226.701 150.485L240.354 145.861L244.056 127.057L227.57 129.615Z" stroke="black" stroke-width="2"/>
<path d="M1.20093 301.424L18.5818 314.167L26.7878 292.106L9.40405 279.356L1.20093 301.424ZM37.8533 268.077L29.1892 291.386L46.5818 304.134L55.0466 281.357L63.7117 258.045L46.323 245.306L37.8533 268.077ZM66.1121 257.326L102.652 284.111L110.855 262.041L74.3191 235.265L66.1121 257.326Z" fill="url(#paint38_linear_225_118)" style="mix-blend-mode:soft-light"/>
<path d="M1.20093 301.424L18.5818 314.167L26.7878 292.106L9.40405 279.356L1.20093 301.424ZM37.8533 268.077L29.1892 291.386L46.5818 304.134L55.0466 281.357L63.7117 258.045L46.323 245.306L37.8533 268.077ZM66.1121 257.326L102.652 284.111L110.855 262.041L74.3191 235.265L66.1121 257.326Z" stroke="black" stroke-width="2"/>
<g opacity="0.25" style="mix-blend-mode:soft-light">
<path d="M72.5515 239.917L109.355 266.078L110.855 262.041L74.3132 235.26L72.5515 239.917Z" fill="url(#paint39_linear_225_118)" style="mix-blend-mode:soft-light"/>
<path d="M72.5515 239.917L109.355 266.078L110.855 262.041L74.3132 235.26L72.5515 239.917Z" stroke="black" stroke-width="2"/>
</g>
<g opacity="0.25" style="mix-blend-mode:soft-light">
<path d="M29.1887 291.386L32.2434 293.625L47.4983 253.068L47.9426 251.886L48.9915 252.589L62.3997 261.576L63.7112 258.045L46.3225 245.306L29.1887 291.386Z" fill="url(#paint40_linear_225_118)" style="mix-blend-mode:soft-light"/>
<path d="M29.1887 291.386L32.2434 293.625L47.4983 253.068L47.9426 251.886L48.9915 252.589L62.3997 261.576L63.7112 258.045L46.3225 245.306L29.1887 291.386Z" stroke="black" stroke-width="2"/>
</g>
<g opacity="0.25" style="mix-blend-mode:soft-light">
<path d="M1.20093 301.425L3.99976 303.477L10.3875 285.79L10.8455 284.524L11.9255 285.328L25.5398 295.459L26.7878 292.106L9.40405 279.356L1.20093 301.425Z" fill="url(#paint41_linear_225_118)" style="mix-blend-mode:soft-light"/>
<path d="M1.20093 301.425L3.99976 303.477L10.3875 285.79L10.8455 284.524L11.9255 285.328L25.5398 295.459L26.7878 292.106L9.40405 279.356L1.20093 301.425Z" stroke="black" stroke-width="2"/>
</g>
<path d="M64.9226 273.28L80.8162 288.277L91.3308 267.5L75.4343 252.495L64.9226 273.28ZM104.907 245.089V245.09L93.7898 267.071L109.694 282.073L120.544 260.621L131.661 238.642L115.759 223.648L104.907 245.089ZM134.12 238.211L167.518 269.718L178.031 248.933L144.635 217.435L134.12 238.211Z" fill="url(#paint42_linear_225_118)" style="mix-blend-mode:soft-light"/>
<path d="M64.9226 273.28L80.8162 288.277L91.3308 267.5L75.4343 252.495L64.9226 273.28ZM104.907 245.089V245.09L93.7898 267.071L109.694 282.073L120.544 260.621L131.661 238.642L115.759 223.648L104.907 245.089ZM134.12 238.211L167.518 269.718L178.031 248.933L144.635 217.435L134.12 238.211Z" stroke="black" stroke-width="2"/>
<g opacity="0.25" style="mix-blend-mode:soft-light">
<path d="M142.39 221.793L176.118 252.715L178.031 248.933L144.629 217.43L142.39 221.793Z" fill="url(#paint43_linear_225_118)" style="mix-blend-mode:soft-light"/>
<path d="M142.39 221.793L176.118 252.715L178.031 248.933L144.629 217.43L142.39 221.793Z" stroke="black" stroke-width="2"/>
</g>
<g opacity="0.25" style="mix-blend-mode:soft-light">
<path d="M93.7903 267.07L96.595 269.717L116.103 231.525L116.684 230.387L117.649 231.225L129.99 241.946L131.661 238.64L115.759 223.647L93.7903 267.07Z" fill="url(#paint44_linear_225_118)" style="mix-blend-mode:soft-light"/>
<path d="M93.7903 267.07L96.595 269.717L116.103 231.525L116.684 230.387L117.649 231.225L129.99 241.946L131.661 238.64L115.759 223.647L93.7903 267.07Z" stroke="black" stroke-width="2"/>
</g>
<g opacity="0.25" style="mix-blend-mode:soft-light">
<path d="M64.9226 273.279L67.4939 275.706L75.7312 259.031L76.3347 257.81L77.3191 258.752L89.7429 270.638L91.3308 267.5L75.4343 252.495L64.9226 273.279Z" fill="url(#paint45_linear_225_118)" style="mix-blend-mode:soft-light"/>
<path d="M64.9226 273.279L67.4939 275.706L75.7312 259.031L76.3347 257.81L77.3191 258.752L89.7429 270.638L91.3308 267.5L75.4343 252.495L64.9226 273.279Z" stroke="black" stroke-width="2"/>
</g>
<path d="M166.924 196.4L191.761 236.629L206.76 219.695L181.923 179.474L166.924 196.4ZM137.105 194.494V194.495L121.214 212.437L133.057 231.618L148.549 214.128L164.441 196.186L152.597 177.014L137.105 194.494ZM91.8972 209.976L103.732 229.149L118.731 212.223L106.896 193.041L91.8972 209.976Z" fill="url(#paint46_linear_225_118)" style="mix-blend-mode:soft-light"/>
<path d="M166.924 196.4L191.761 236.629L206.76 219.695L181.923 179.474L166.924 196.4ZM137.105 194.494V194.495L121.214 212.437L133.057 231.618L148.549 214.128L164.441 196.186L152.597 177.014L137.105 194.494ZM91.8972 209.976L103.732 229.149L118.731 212.223L106.896 193.041L91.8972 209.976Z" stroke="black" stroke-width="2"/>
<g opacity="0.25" style="mix-blend-mode:soft-light">
<path d="M178.769 182.98L204.063 222.741L206.76 219.695L181.919 179.467L178.769 182.98Z" fill="url(#paint47_linear_225_118)" style="mix-blend-mode:soft-light"/>
<path d="M178.769 182.98L204.063 222.741L206.76 219.695L181.919 179.467L178.769 182.98Z" stroke="black" stroke-width="2"/>
</g>
<g opacity="0.25" style="mix-blend-mode:soft-light">
<path d="M121.214 212.437L123.327 215.86L151.114 184.752L151.971 183.792L152.69 184.861L162.089 198.842L164.44 196.186L152.596 177.013L121.214 212.437Z" fill="url(#paint48_linear_225_118)" style="mix-blend-mode:soft-light"/>
<path d="M121.214 212.437L123.327 215.86L151.114 184.752L151.971 183.792L152.69 184.861L162.089 198.842L164.44 196.186L152.596 177.013L121.214 212.437Z" stroke="black" stroke-width="2"/>
</g>
<g opacity="0.25" style="mix-blend-mode:soft-light">
<path d="M91.8967 209.976L93.8362 213.117L105.682 199.472L106.58 198.437L107.291 199.607L116.498 214.742L118.732 212.223L106.896 193.042L91.8967 209.976Z" fill="url(#paint49_linear_225_118)" style="mix-blend-mode:soft-light"/>
<path d="M91.8967 209.976L93.8362 213.117L105.682 199.472L106.58 198.437L107.291 199.607L116.498 214.742L118.732 212.223L106.896 193.042L91.8967 209.976Z" stroke="black" stroke-width="2"/>
</g>
<g opacity="0.25" style="mix-blend-mode:soft-light">
<path d="M315.33 186.213L326.261 190.59L333.934 190.049L316.156 182.11L315.33 186.213Z" fill="url(#paint50_linear_225_118)" style="mix-blend-mode:soft-light"/>
<path d="M315.33 186.213L326.261 190.59L333.934 190.049L316.156 182.11L315.33 186.213Z" stroke="black" stroke-width="2"/>
</g>
<g opacity="0.25" style="mix-blend-mode:soft-light">
<path d="M353.116 203.148L364.048 207.525L371.721 206.984L353.943 199.046L353.116 203.148Z" fill="url(#paint51_linear_225_118)" style="mix-blend-mode:soft-light"/>
<path d="M353.116 203.148L364.048 207.525L371.721 206.984L353.943 199.046L353.116 203.148Z" stroke="black" stroke-width="2"/>
</g>
<g opacity="0.25" style="mix-blend-mode:soft-light">
<path d="M309.323 257.616L310.25 259.987L323.399 252.221L324.399 251.63L324.835 252.707L338.667 286.946H341.339L325.873 247.403L309.323 257.616Z" fill="url(#paint52_linear_225_118)" style="mix-blend-mode:soft-light"/>
<path d="M309.323 257.616L310.25 259.987L323.399 252.221L324.399 251.63L324.835 252.707L338.667 286.946H341.339L325.873 247.403L309.323 257.616Z" stroke="black" stroke-width="2"/>
</g>
<g opacity="0.3" style="mix-blend-mode:overlay">
<path d="M321.334 123.46L329.931 126.74L331.653 116.976L323.731 113.262L321.334 123.46Z" fill="url(#paint53_linear_225_118)" style="mix-blend-mode:soft-light"/>
<path d="M321.334 123.46L329.931 126.74L331.653 116.976L323.731 113.262L321.334 123.46Z" stroke="black" stroke-width="2"/>
</g>
<g opacity="0.25" style="mix-blend-mode:soft-light">
<path d="M208.734 102.423L206.857 110.415L214.284 109.107L215.632 101.466L208.734 102.423Z" fill="url(#paint54_linear_225_118)" style="mix-blend-mode:soft-light"/>
<path d="M208.734 102.423L206.857 110.415L214.284 109.107L215.632 101.466L208.734 102.423Z" stroke="black" stroke-width="2"/>
</g>
<g opacity="0.2" style="mix-blend-mode:overlay">
<path d="M353.146 127.468L358.189 129.393L359.214 123.575L354.572 121.398L353.146 127.468Z" fill="url(#paint55_linear_225_118)" style="mix-blend-mode:soft-light"/>
<path d="M353.146 127.468L358.189 129.393L359.214 123.575L354.572 121.398L353.146 127.468Z" stroke="black" stroke-width="2"/>
</g>
</g>
<defs>
<filter id="filter0_n_225_118" x="0.000244141" y="0" width="414.16" height="366.466" filterUnits="userSpaceOnUse" color-interpolation-filters="sRGB">
<feFlood flood-opacity="0" result="BackgroundImageFix"/>
<feBlend mode="normal" in="SourceGraphic" in2="BackgroundImageFix" result="shape"/>
<feTurbulence type="fractalNoise" baseFrequency="0.25 0.25" stitchTiles="stitch" numOctaves="3" result="noise" seed="1604" />
<feColorMatrix in="noise" type="luminanceToAlpha" result="alphaNoise" />
<feComponentTransfer in="alphaNoise" result="coloredNoise1">
<feFuncA type="discrete" tableValues="1 1 1 1 1 1 1 1 1 1 1 1 1 1 1 1 1 1 1 1 1 1 1 1 1 1 1 1 1 1 1 1 1 1 1 1 1 1 1 1 1 1 1 1 1 1 1 1 1 1 1 0 0 0 0 0 0 0 0 0 0 0 0 0 0 0 0 0 0 0 0 0 0 0 0 0 0 0 0 0 0 0 0 0 0 0 0 0 0 0 0 0 0 0 0 0 0 0 0 0 "/>
</feComponentTransfer>
<feComposite operator="in" in2="shape" in="coloredNoise1" result="noise1Clipped" />
<feFlood flood-color="rgba(0, 0, 0, 0.25)" result="color1Flood" />
<feComposite operator="in" in2="noise1Clipped" in="color1Flood" result="color1" />
<feMerge result="effect1_noise_225_118">
<feMergeNode in="shape" />
<feMergeNode in="color1" />
</feMerge>
</filter>
<linearGradient id="paint0_linear_225_118" x1="352.676" y1="200.887" x2="352.676" y2="181.545" gradientUnits="userSpaceOnUse">
<stop offset="0.529723" stop-color="white"/>
<stop offset="0.936345" stop-opacity="0"/>
</linearGradient>
<linearGradient id="paint1_linear_225_118" x1="363.875" y1="208.539" x2="363.875" y2="197.623" gradientUnits="userSpaceOnUse">
<stop offset="0.529723" stop-color="white"/>
<stop offset="0.936345" stop-opacity="0"/>
</linearGradient>
<linearGradient id="paint2_linear_225_118" x1="288.969" y1="350.823" x2="288.969" y2="250.944" gradientUnits="userSpaceOnUse">
<stop offset="0.529723" stop-color="white"/>
<stop offset="0.936345" stop-opacity="0"/>
</linearGradient>
<linearGradient id="paint3_linear_225_118" x1="263.823" y1="366.466" x2="263.823" y2="266.584" gradientUnits="userSpaceOnUse">
<stop offset="0.529723" stop-color="white"/>
<stop offset="0.936345" stop-opacity="0"/>
</linearGradient>
<linearGradient id="paint4_linear_225_118" x1="318.005" y1="322.286" x2="318.005" y2="231.75" gradientUnits="userSpaceOnUse">
<stop offset="0.529723" stop-color="white"/>
<stop offset="0.936345" stop-opacity="0"/>
</linearGradient>
<linearGradient id="paint5_linear_225_118" x1="109.3" y1="317.943" x2="109.3" y2="160.663" gradientUnits="userSpaceOnUse">
<stop offset="0.529723" stop-color="white"/>
<stop offset="0.936345" stop-opacity="0"/>
</linearGradient>
<linearGradient id="paint6_linear_225_118" x1="188.478" y1="296.729" x2="188.478" y2="160.663" gradientUnits="userSpaceOnUse">
<stop offset="0.529723" stop-color="white"/>
<stop offset="0.936345" stop-opacity="0"/>
</linearGradient>
<linearGradient id="paint7_linear_225_118" x1="184.449" y1="264.186" x2="184.449" y2="159.289" gradientUnits="userSpaceOnUse">
<stop offset="0.529723" stop-color="white"/>
<stop offset="0.936345" stop-opacity="0"/>
</linearGradient>
<linearGradient id="paint8_linear_225_118" x1="182.457" y1="204.658" x2="182.457" y2="159.289" gradientUnits="userSpaceOnUse">
<stop offset="0.529723" stop-color="white"/>
<stop offset="0.936345" stop-opacity="0"/>
</linearGradient>
<linearGradient id="paint9_linear_225_118" x1="237.288" y1="250.026" x2="237.288" y2="159.289" gradientUnits="userSpaceOnUse">
<stop offset="0.529723" stop-color="white"/>
<stop offset="0.936345" stop-opacity="0"/>
</linearGradient>
<linearGradient id="paint10_linear_225_118" x1="205.052" y1="357.024" x2="205.052" y2="209.528" gradientUnits="userSpaceOnUse">
<stop offset="0.529723" stop-color="white"/>
<stop offset="0.936345" stop-opacity="0"/>
</linearGradient>
<linearGradient id="paint11_linear_225_118" x1="233.721" y1="220.851" x2="233.721" y2="97.9178" gradientUnits="userSpaceOnUse">
<stop offset="0.529723" stop-color="white"/>
<stop offset="0.936345" stop-opacity="0"/>
</linearGradient>
<linearGradient id="paint12_linear_225_118" x1="302.796" y1="245.021" x2="302.796" y2="97.9178" gradientUnits="userSpaceOnUse">
<stop offset="0.529723" stop-color="white"/>
<stop offset="0.936345" stop-opacity="0"/>
</linearGradient>
<linearGradient id="paint13_linear_225_118" x1="289.989" y1="246.915" x2="289.989" y2="97.9164" gradientUnits="userSpaceOnUse">
<stop offset="0.529723" stop-color="white"/>
<stop offset="0.936345" stop-opacity="0"/>
</linearGradient>
<linearGradient id="paint14_linear_225_118" x1="302.796" y1="245.021" x2="302.796" y2="97.9178" gradientUnits="userSpaceOnUse">
<stop offset="0.529723" stop-color="white"/>
<stop offset="0.936345" stop-opacity="0"/>
</linearGradient>
<linearGradient id="paint15_linear_225_118" x1="264.293" y1="113.233" x2="264.293" y2="0" gradientUnits="userSpaceOnUse">
<stop offset="0.529723" stop-color="white"/>
<stop offset="0.936345" stop-opacity="0"/>
</linearGradient>
<linearGradient id="paint16_linear_225_118" x1="368.458" y1="115.924" x2="368.458" y2="52.6797" gradientUnits="userSpaceOnUse">
<stop offset="0.529723" stop-color="white"/>
<stop offset="0.936345" stop-opacity="0"/>
</linearGradient>
<linearGradient id="paint17_linear_225_118" x1="338.929" y1="245.022" x2="338.929" y2="130.759" gradientUnits="userSpaceOnUse">
<stop offset="0.529723" stop-color="white"/>
<stop offset="0.936345" stop-opacity="0"/>
</linearGradient>
<linearGradient id="paint18_linear_225_118" x1="161.414" y1="182.877" x2="161.414" y2="160.663" gradientUnits="userSpaceOnUse">
<stop offset="0.529723" stop-color="white"/>
<stop offset="0.936345" stop-opacity="0"/>
</linearGradient>
<linearGradient id="paint19_linear_225_118" x1="105.375" y1="303.078" x2="105.375" y2="160.663" gradientUnits="userSpaceOnUse">
<stop offset="0.529723" stop-color="white"/>
<stop offset="0.936345" stop-opacity="0"/>
</linearGradient>
<linearGradient id="paint20_linear_225_118" x1="280.331" y1="189.025" x2="280.331" y2="70.043" gradientUnits="userSpaceOnUse">
<stop offset="0.529723" stop-color="white"/>
<stop offset="0.936345" stop-opacity="0"/>
</linearGradient>
<linearGradient id="paint21_linear_225_118" x1="277.368" y1="183.018" x2="277.368" y2="113.34" gradientUnits="userSpaceOnUse">
<stop offset="0.529723" stop-color="white"/>
<stop offset="0.936345" stop-opacity="0"/>
</linearGradient>
<linearGradient id="paint22_linear_225_118" x1="193.195" y1="166.95" x2="193.195" y2="154.252" gradientUnits="userSpaceOnUse">
<stop offset="0.529723" stop-color="white"/>
<stop offset="0.936345" stop-opacity="0"/>
</linearGradient>
<linearGradient id="paint23_linear_225_118" x1="228.982" y1="156.364" x2="228.982" y2="70.043" gradientUnits="userSpaceOnUse">
<stop offset="0.529723" stop-color="white"/>
<stop offset="0.936345" stop-opacity="0"/>
</linearGradient>
<linearGradient id="paint24_linear_225_118" x1="325.93" y1="189.025" x2="325.93" y2="70.043" gradientUnits="userSpaceOnUse">
<stop offset="0.529723" stop-color="white"/>
<stop offset="0.936345" stop-opacity="0"/>
</linearGradient>
<linearGradient id="paint25_linear_225_118" x1="228.982" y1="156.364" x2="228.982" y2="70.043" gradientUnits="userSpaceOnUse">
<stop offset="0.529723" stop-color="white"/>
<stop offset="0.936345" stop-opacity="0"/>
</linearGradient>
<linearGradient id="paint26_linear_225_118" x1="336.14" y1="231.493" x2="336.14" y2="197.623" gradientUnits="userSpaceOnUse">
<stop offset="0.529723" stop-color="white"/>
<stop offset="0.936345" stop-opacity="0"/>
</linearGradient>
<linearGradient id="paint27_linear_225_118" x1="298.353" y1="214.558" x2="298.353" y2="180.688" gradientUnits="userSpaceOnUse">
<stop offset="0.529723" stop-color="white"/>
<stop offset="0.936345" stop-opacity="0"/>
</linearGradient>
<linearGradient id="paint28_linear_225_118" x1="305.691" y1="236.809" x2="305.691" y2="220.592" gradientUnits="userSpaceOnUse">
<stop offset="0.529723" stop-color="white"/>
<stop offset="0.936345" stop-opacity="0"/>
</linearGradient>
<linearGradient id="paint29_linear_225_118" x1="268.1" y1="219.985" x2="268.1" y2="203.768" gradientUnits="userSpaceOnUse">
<stop offset="0.529723" stop-color="white"/>
<stop offset="0.936345" stop-opacity="0"/>
</linearGradient>
<linearGradient id="paint30_linear_225_118" x1="291.004" y1="128.662" x2="291.004" y2="115.51" gradientUnits="userSpaceOnUse">
<stop offset="0.529723" stop-color="white"/>
<stop offset="0.936345" stop-opacity="0"/>
</linearGradient>
<linearGradient id="paint31_linear_225_118" x1="234.258" y1="89.4831" x2="234.258" y2="76.5194" gradientUnits="userSpaceOnUse">
<stop offset="0.529723" stop-color="white"/>
<stop offset="0.936345" stop-opacity="0"/>
</linearGradient>
<linearGradient id="paint32_linear_225_118" x1="87.5796" y1="245.021" x2="87.5796" y2="224.398" gradientUnits="userSpaceOnUse">
<stop offset="0.529723" stop-color="white"/>
<stop offset="0.936345" stop-opacity="0"/>
</linearGradient>
<linearGradient id="paint33_linear_225_118" x1="101.553" y1="226.625" x2="101.553" y2="210.2" gradientUnits="userSpaceOnUse">
<stop offset="0.529723" stop-color="white"/>
<stop offset="0.936345" stop-opacity="0"/>
</linearGradient>
<linearGradient id="paint34_linear_225_118" x1="178.602" y1="242.922" x2="178.602" y2="226.497" gradientUnits="userSpaceOnUse">
<stop offset="0.529723" stop-color="white"/>
<stop offset="0.936345" stop-opacity="0"/>
</linearGradient>
<linearGradient id="paint35_linear_225_118" x1="278.016" y1="167.898" x2="278.016" y2="122.323" gradientUnits="userSpaceOnUse">
<stop offset="0.529723" stop-color="white"/>
<stop offset="0.936345" stop-opacity="0"/>
</linearGradient>
<linearGradient id="paint36_linear_225_118" x1="238.625" y1="141.176" x2="238.625" y2="122.185" gradientUnits="userSpaceOnUse">
<stop offset="0.529723" stop-color="white"/>
<stop offset="0.936345" stop-opacity="0"/>
</linearGradient>
<linearGradient id="paint37_linear_225_118" x1="235.477" y1="151.899" x2="235.477" y2="125.85" gradientUnits="userSpaceOnUse">
<stop offset="0.529723" stop-color="white"/>
<stop offset="0.936345" stop-opacity="0"/>
</linearGradient>
<linearGradient id="paint38_linear_225_118" x1="56.0278" y1="315.757" x2="56.0278" y2="233.676" gradientUnits="userSpaceOnUse">
<stop offset="0.529723" stop-color="white"/>
<stop offset="0.936345" stop-opacity="0"/>
</linearGradient>
<linearGradient id="paint39_linear_225_118" x1="91.6992" y1="267.649" x2="91.6992" y2="233.676" gradientUnits="userSpaceOnUse">
<stop offset="0.529723" stop-color="white"/>
<stop offset="0.936345" stop-opacity="0"/>
</linearGradient>
<linearGradient id="paint40_linear_225_118" x1="46.4496" y1="295.212" x2="46.4496" y2="243.718" gradientUnits="userSpaceOnUse">
<stop offset="0.529723" stop-color="white"/>
<stop offset="0.936345" stop-opacity="0"/>
</linearGradient>
<linearGradient id="paint41_linear_225_118" x1="13.9941" y1="305.074" x2="13.9941" y2="277.766" gradientUnits="userSpaceOnUse">
<stop offset="0.529723" stop-color="white"/>
<stop offset="0.936345" stop-opacity="0"/>
</linearGradient>
<linearGradient id="paint42_linear_225_118" x1="121.477" y1="289.923" x2="121.477" y2="215.789" gradientUnits="userSpaceOnUse">
<stop offset="0.529723" stop-color="white"/>
<stop offset="0.936345" stop-opacity="0"/>
</linearGradient>
<linearGradient id="paint43_linear_225_118" x1="160.206" y1="254.345" x2="160.206" y2="215.789" gradientUnits="userSpaceOnUse">
<stop offset="0.529723" stop-color="white"/>
<stop offset="0.936345" stop-opacity="0"/>
</linearGradient>
<linearGradient id="paint44_linear_225_118" x1="112.725" y1="271.359" x2="112.725" y2="222.002" gradientUnits="userSpaceOnUse">
<stop offset="0.529723" stop-color="white"/>
<stop offset="0.936345" stop-opacity="0"/>
</linearGradient>
<linearGradient id="paint45_linear_225_118" x1="78.1266" y1="277.362" x2="78.1266" y2="250.849" gradientUnits="userSpaceOnUse">
<stop offset="0.529723" stop-color="white"/>
<stop offset="0.936345" stop-opacity="0"/>
</linearGradient>
<linearGradient id="paint46_linear_225_118" x1="149.328" y1="238.3" x2="149.328" y2="175.344" gradientUnits="userSpaceOnUse">
<stop offset="0.529723" stop-color="white"/>
<stop offset="0.936345" stop-opacity="0"/>
</linearGradient>
<linearGradient id="paint47_linear_225_118" x1="192.76" y1="224.398" x2="192.76" y2="177.805" gradientUnits="userSpaceOnUse">
<stop offset="0.529723" stop-color="white"/>
<stop offset="0.936345" stop-opacity="0"/>
</linearGradient>
<linearGradient id="paint48_linear_225_118" x1="142.826" y1="217.526" x2="142.826" y2="175.344" gradientUnits="userSpaceOnUse">
<stop offset="0.529723" stop-color="white"/>
<stop offset="0.936345" stop-opacity="0"/>
</linearGradient>
<linearGradient id="paint49_linear_225_118" x1="105.313" y1="216.42" x2="105.313" y2="191.371" gradientUnits="userSpaceOnUse">
<stop offset="0.529723" stop-color="white"/>
<stop offset="0.936345" stop-opacity="0"/>
</linearGradient>
<linearGradient id="paint50_linear_225_118" x1="326.088" y1="191.604" x2="326.088" y2="180.688" gradientUnits="userSpaceOnUse">
<stop offset="0.529723" stop-color="white"/>
<stop offset="0.936345" stop-opacity="0"/>
</linearGradient>
<linearGradient id="paint51_linear_225_118" x1="363.875" y1="208.539" x2="363.875" y2="197.623" gradientUnits="userSpaceOnUse">
<stop offset="0.529723" stop-color="white"/>
<stop offset="0.936345" stop-opacity="0"/>
</linearGradient>
<linearGradient id="paint52_linear_225_118" x1="325.445" y1="287.947" x2="325.445" y2="245.923" gradientUnits="userSpaceOnUse">
<stop offset="0.529723" stop-color="white"/>
<stop offset="0.936345" stop-opacity="0"/>
</linearGradient>
<linearGradient id="paint53_linear_225_118" x1="326.465" y1="128.107" x2="326.465" y2="111.835" gradientUnits="userSpaceOnUse">
<stop offset="0.529723" stop-color="white"/>
<stop offset="0.936345" stop-opacity="0"/>
</linearGradient>
<linearGradient id="paint54_linear_225_118" x1="211.195" y1="111.664" x2="211.195" y2="100.287" gradientUnits="userSpaceOnUse">
<stop offset="0.529723" stop-color="white"/>
<stop offset="0.936345" stop-opacity="0"/>
</linearGradient>
<linearGradient id="paint55_linear_225_118" x1="356.152" y1="130.759" x2="356.152" y2="119.971" gradientUnits="userSpaceOnUse">
<stop offset="0.529723" stop-color="white"/>
<stop offset="0.936345" stop-opacity="0"/>
</linearGradient>
</defs>
</svg>
