<svg width="2505" height="1090" viewBox="0 0 2505 1090" fill="none" xmlns="http://www.w3.org/2000/svg">
<path d="M445.663 807.88L818.155 905.77L945.137 939.085H945.369L445.663 807.88Z" fill="#20110D"/>
<path d="M1335.45 481.053L1392.25 445.234L1370.45 458.916L1335.45 481.053Z" fill="#20110D"/>
<path d="M516.255 469.335L497.149 504.969L514.299 473.08L516.255 469.335Z" fill="#20110D"/>
<path d="M550.638 491.731L514.299 473.08L568.307 500.964L604.608 519.763L550.638 491.731Z" fill="#20110D"/>
<path d="M2013.11 568.003L2049.24 630.603L1995.11 534.697L2013.11 568.003Z" fill="#20110D"/>
<path d="M1711.71 243.531L1684.25 261.172L1761.38 212.551L1761.31 212.421L1711.71 243.531Z" fill="#20110D"/>
<path d="M1077.1 575.92L697.031 367.209V367.219L1021.17 545.274L1077.1 575.92Z" fill="#20110D"/>
<path d="M834.572 639.215L1273.97 867.42L834.582 639.206L834.572 639.215Z" fill="#20110D"/>
<path d="M2138.25 637.259L2141.85 642.867L2143.51 641.912L2018.36 435.157L2138.25 637.259Z" fill="#20110D"/>
<path d="M2049.24 630.603L2064.41 687.566L2065.19 687.112L2059.35 662.788L2049.24 630.603Z" fill="#20110D"/>
<path d="M810.877 938.807L696.252 909.005L811.22 939.169H812.277L810.877 938.807Z" fill="#20110D"/>
<path d="M882.582 598.344L862.883 587.72L578.633 435.213L882.582 598.344Z" fill="#20110D"/>
<path d="M2059.7 818.799L2147.7 790.35L2147.62 790.22L1994.03 839.545L2059.7 818.799Z" fill="#20110D"/>
<path d="M2073.49 721.688L2068.06 699.07L2067.37 698.681L2073.49 721.688Z" fill="#20110D"/>
<path d="M1555.63 714.273L1555.7 714.245L1555.94 714.106L1555.63 714.273Z" fill="#20110D"/>
<path d="M477.376 663.186L514.762 601.922L568.307 500.964L477.376 663.186Z" fill="#20110D"/>
<path d="M1569.87 938.668L1739.55 885.264L2081.72 776.52L1568.83 938.668H1569.87Z" fill="#20110D"/>
<path d="M761.533 238.22L761.496 238.294L1092.83 424.015L1043.79 396.011L761.533 238.22Z" fill="#20110D"/>
<path d="M1370.53 454.837L1370.51 454.856L1370.45 458.916L1370.53 454.837Z" fill="#20110D"/>
<path d="M695.891 201.52L694.992 201.02L695.891 201.52Z" fill="#20110D"/>
<path d="M2504.55 770.383L2360.55 690.107L2423.49 653.787L2086.95 183.963L1944.52 230.897L1813.64 0.179199L1261.71 345.713L699.052 27.2564L580.738 263.869L437.45 221.219L0.808594 891.346L755.21 1089.45L1717.44 1088.81L2382.03 882.632L2339.04 813.507L2504.55 770.383ZM2304.52 744.882L2221.36 766.546L2266.87 839.713L2094.96 894.275L1706.04 1013.7L1440.27 1014.5L1100.45 1015.07L764.888 1014.32L120.588 845.126L257.887 634.413L416.722 388.642L445.097 347.085L469.774 309.208L584.965 342.394L619.691 353.833L620.831 351.636L636.748 319.813L653.471 283.948L674.431 241.863L695.01 201.02L714.459 161.688L730.886 131.589L1263.66 433.128L1787.02 105.475L1838.91 196.96L1848.13 210.874L1869.09 249.946L1894.67 294.339L1909.73 321.454L2058.02 272.583L2089.21 316.114L2114.19 348.763L2314.16 630.149L2208.31 691.237L2304.52 744.873L2304.52 744.882Z" fill="#20110D"/>
<path d="M1096.73 1014.11L1100.44 1015.08L1096.74 1014.11H1096.73Z" fill="#20110D"/>
<path d="M761.533 238.219L695.891 201.52L761.496 238.294L761.533 238.219Z" fill="#20110D"/>
<path d="M945.137 939.085L1228.71 1013.48L945.368 939.085H945.137Z" fill="#20110D"/>
<path d="M1331.09 1013.84L1569.87 938.668H1568.83L1331.09 1013.84Z" fill="#20110D"/>
<path d="M1823.35 173.498L1838.91 196.969L1787.01 105.476L1804.14 136.112L1823.35 173.498Z" fill="#20110D"/>
<path d="M2143.51 641.912L2141.85 642.867L2221.36 766.545L2179.31 701.063L2143.51 641.912Z" fill="#20110D"/>
<path d="M636.739 319.822L620.822 351.646L631.436 331.187L636.739 319.822Z" fill="#20110D"/>
<path d="M811.221 939.169L1096.73 1014.11H1096.74L812.278 939.169H811.221Z" fill="#20110D"/>
<path d="M2147.7 790.35L2221.36 766.545L2147.62 790.22L2147.7 790.35Z" fill="#20110D"/>
<path d="M631.436 331.187L697.031 367.219V367.21L631.436 331.187Z" fill="#20110D"/>
<path d="M287.867 888.546L120.579 845.126L764.879 1014.32L458.623 932.504L287.867 888.546Z" fill="#20110D"/>
<path d="M469.765 309.217L445.088 347.084L446.544 344.952L469.765 309.217Z" fill="#20110D"/>
<path d="M1761.38 212.551L1823.35 173.497L1761.31 212.421L1761.38 212.551Z" fill="#20110D"/>
<path d="M2067.37 698.681L2068.06 699.07L2065.19 687.112L2064.41 687.567L2067.37 698.681Z" fill="#20110D"/>
<path d="M2089.2 316.123L2058.01 272.583L2083.68 308.902L2089.2 316.123Z" fill="#20110D"/>
<path d="M214.253 701.898L257.878 634.413L120.579 845.126L168.524 772.135L214.253 701.898Z" fill="#20110D"/>
<path d="M1944.71 310.061L2058.01 272.583L1909.72 321.453L1944.71 310.061Z" fill="#20110D"/>
<path d="M1370.51 454.856L1370.53 454.837L1371.48 407.867L1265.24 474.591L1371.14 408.395L1370.51 454.856Z" fill="#20110D"/>
<path d="M730.868 131.588L714.441 161.688L715.516 162.29L730.868 131.588Z" fill="#F4E9B9"/>
<path d="M1052.13 353.389L1265.24 474.592L1371.48 407.867L1371.49 407.33L1477.19 341.134V341.143L1582.94 274.734L1582.8 274.363L1694.84 204.283L1804.14 136.112L1787.01 105.476L1263.65 433.128L730.867 131.589L715.516 162.291L1052.13 353.389Z" fill="#F4E9B9"/>
<path d="M1043.97 395.112L762.691 235.911L761.533 238.219L1043.79 396.011L1043.97 395.112Z" fill="#EFDE96"/>
<path d="M715.516 162.29L714.44 161.688L694.992 201.019L695.891 201.52L715.516 162.29Z" fill="#EFDE96"/>
<path d="M762.692 235.911L1043.97 395.112L1052.1 353.509L715.516 162.29L695.891 201.52L761.533 238.219L762.692 235.911Z" fill="#EFDE96"/>
<path d="M715.516 162.29L714.441 161.688L715.516 162.29Z" fill="#EFDE96"/>
<path d="M1052.13 353.388L715.516 162.29L1052.1 353.509L1052.13 353.388Z" fill="#EFDE96"/>
<path d="M1267.93 523.61L1267.95 523.591L1267.71 519.207L1265.59 520.542L1043.97 395.111L1043.79 396.01L1092.83 424.015L1155.34 459.055L1267.93 523.61Z" fill="#D8C373"/>
<path d="M1043.97 395.112L1265.59 520.542L1267.71 519.207L1265.24 474.592L1052.1 353.509L1043.97 395.112Z" fill="#D8C373"/>
<path d="M1265.24 474.591L1052.13 353.388L1052.1 353.509L1265.24 474.591Z" fill="#D8C373"/>
<path d="M1370.51 454.856L1267.76 519.17L1268.01 523.555L1335.45 481.053L1370.45 458.916L1370.51 454.856Z" fill="#EFDE96"/>
<path d="M1370.51 454.856L1371.14 408.396L1265.24 474.591L1267.76 519.17L1370.51 454.856Z" fill="#EFDE96"/>
<path d="M1268.01 523.555L1267.76 519.17L1267.71 519.207L1267.95 523.592L1268.01 523.555Z" fill="#EFDE96"/>
<path d="M1267.76 519.171L1265.24 474.592L1267.71 519.208L1267.76 519.171Z" fill="#EFDE96"/>
<path d="M1486.05 382.523L1370.53 454.838L1370.45 458.916L1392.25 445.234L1486.76 385.666L1486.05 382.523Z" fill="#D8C373"/>
<path d="M1486.05 382.523L1476.78 341.727L1371.48 407.867L1370.53 454.837L1486.05 382.523Z" fill="#D8C373"/>
<path d="M1476.71 341.448L1477.19 341.143V341.133L1371.49 407.329L1371.48 407.867L1476.78 341.727L1476.71 341.448Z" fill="#D8C373"/>
<path d="M1486.34 382.329L1487.05 385.48L1598.39 315.298L1597.44 312.786L1486.34 382.329Z" fill="#FFF0B6"/>
<path d="M1597.44 312.786L1583.04 274.993L1477.26 341.43L1486.34 382.329L1597.44 312.786Z" fill="#FFF0B6"/>
<path d="M1583.04 274.993L1582.94 274.733L1477.19 341.143L1477.26 341.43L1583.04 274.993Z" fill="#FFF0B6"/>
<path d="M1487.05 385.48L1486.34 382.329L1486.05 382.523L1486.76 385.666L1487.05 385.48Z" fill="#FFF0B6"/>
<path d="M1477.26 341.43L1476.78 341.727L1486.05 382.523L1486.34 382.329L1477.26 341.43Z" fill="#FFF0B6"/>
<path d="M1476.78 341.727L1477.26 341.43L1477.19 341.143L1476.71 341.448L1476.78 341.727Z" fill="#FFF0B6"/>
<path d="M1710.94 241.733L1597.59 312.684L1598.44 315.271L1684.25 261.172L1711.71 243.531L1710.94 241.733Z" fill="#EFDE96"/>
<path d="M1710.94 241.733L1695.01 204.663L1584.95 273.788L1597.6 312.684L1710.94 241.733Z" fill="#EFDE96"/>
<path d="M1584.95 273.788L1695.01 204.662L1694.84 204.282L1582.8 274.362L1582.94 274.733L1584.87 273.519L1584.95 273.788Z" fill="#EFDE96"/>
<path d="M1598.39 315.299L1598.44 315.271L1597.6 312.685L1597.44 312.787L1598.39 315.299Z" fill="#EFDE96"/>
<path d="M1597.6 312.684L1584.95 273.788L1583.04 274.993L1597.44 312.786L1597.6 312.684Z" fill="#EFDE96"/>
<path d="M1584.95 273.788L1584.87 273.519L1582.94 274.733L1583.04 274.993L1584.95 273.788Z" fill="#EFDE96"/>
<path d="M1761.31 212.422L1760.38 210.781L1710.94 241.733L1711.71 243.531L1761.31 212.422Z" fill="#D6C06F"/>
<path d="M1710.94 241.733L1760.38 210.78L1761.31 212.421L1823.35 173.497L1804.14 136.112L1695.01 204.662L1710.94 241.733Z" fill="#D6C06F"/>
<path d="M1804.14 136.112L1694.84 204.282L1695.01 204.662L1804.14 136.112Z" fill="#D6C06F"/>
<path d="M1149.03 615.326L1269.17 681.393L1392.73 606.27L1516.3 531.685L1528.81 586.024L1789.16 423.626L1768.56 372.484L1830.37 334.181L1805.32 290.01L1748.67 325.597L1727.72 284.393L1782.99 250.65L1761.38 212.551L1684.25 261.172L1598.72 316.142L1486.84 385.999L1486.82 385.907L1392.25 445.234L1335.45 481.053L1268.01 523.675L1268.04 524.074L1267.94 524.018L1269 570.488L1609.62 359.692L1624.18 403.38L1270.95 621.454L1031.55 489.775L1037.41 444.223L1152.85 509.492L1155.31 459.695L1092.83 424.015L761.496 238.294L741.565 278.163L799.577 309.523L917.456 374.171L904.394 422.115L780.657 354.009L720.262 320.749L697.031 367.21L1077.1 575.92L1149.03 615.326Z" fill="#FFF0B6"/>
<path d="M1894.28 294.58L1894.66 294.339L1869.08 249.946L1868.99 250.001L1894.28 294.58Z" fill="#FFF0B6"/>
<path d="M653.462 283.957L636.739 319.822L654.417 284.476L653.462 283.957Z" fill="#FFF0B6"/>
<path d="M695.891 201.52L694.992 201.02L674.413 241.862L675.442 242.419L695.891 201.52Z" fill="#FFF0B6"/>
<path d="M1848.12 210.873L1838.91 196.968L1847.14 211.476L1848.12 210.873Z" fill="#FFF0B6"/>
<path d="M761.496 238.294L695.891 201.52L675.441 242.419L741.565 278.163L761.496 238.294Z" fill="#FFF0B6"/>
<path d="M1761.38 212.551L1782.99 250.65L1847.14 211.476L1838.91 196.968L1823.35 173.497L1761.38 212.551Z" fill="#FFF0B6"/>
<path d="M1830.37 334.181L1894.28 294.58L1868.99 250.001L1805.32 290.01L1830.37 334.181Z" fill="#FFF0B6"/>
<path d="M697.031 367.209L720.262 320.749L654.417 284.476L636.739 319.822L631.436 331.186L697.031 367.209Z" fill="#FFF0B6"/>
<path d="M1267.95 523.592L1267.93 523.61L1267.94 524.018L1268.04 524.074L1268.02 523.675L1267.96 523.712L1267.95 523.592Z" fill="#FFF0B6"/>
<path d="M1092.83 424.015L1155.31 459.695L1155.34 459.055L1092.83 424.015Z" fill="#FFF0B6"/>
<path d="M1268.02 523.675L1335.45 481.052L1268.02 523.554V523.675Z" fill="#FFF0B6"/>
<path d="M1267.95 523.592L1267.96 523.712L1268.01 523.675V523.555L1267.95 523.592Z" fill="#FFF0B6"/>
<path d="M1392.25 445.234L1486.82 385.907L1486.76 385.666L1392.25 445.234Z" fill="#FFF0B6"/>
<path d="M1487.05 385.48L1487.1 385.73L1486.82 385.906L1486.84 385.999L1598.72 316.141L1598.39 315.298L1487.05 385.48Z" fill="#FFF0B6"/>
<path d="M1487.05 385.48L1486.76 385.666L1486.82 385.907L1487.1 385.731L1487.05 385.48Z" fill="#FFF0B6"/>
<path d="M1598.72 316.142L1684.25 261.171L1598.44 315.27L1598.72 316.142Z" fill="#FFF0B6"/>
<path d="M1598.39 315.298L1598.72 316.142L1598.44 315.271L1598.39 315.298Z" fill="#FFF0B6"/>
<path d="M1152.85 509.492L1037.41 444.223L1031.55 489.775L1270.95 621.454L1624.18 403.38L1609.62 359.691L1269 570.488L1267.94 524.018L1155.31 459.695L1152.85 509.492Z" fill="#EFDE96"/>
<path d="M1155.34 459.056L1155.31 459.695L1267.94 524.019L1267.93 523.611L1155.34 459.056Z" fill="#EFDE96"/>
<path d="M741.463 278.358L720.271 320.74L780.666 353.991L799.41 309.912L741.463 278.358Z" fill="#D8C373"/>
<path d="M675.441 242.428L674.412 241.863L653.462 283.957L654.417 284.476L675.441 242.428Z" fill="#D8C373"/>
<path d="M741.463 278.358L675.441 242.428L654.417 284.476L720.271 320.74L741.463 278.358Z" fill="#D8C373"/>
<path d="M780.666 353.991L720.271 320.74L720.262 320.749L780.657 354.009L780.666 353.991Z" fill="#D8C373"/>
<path d="M799.41 309.912L799.577 309.523L741.565 278.163L741.463 278.358L799.41 309.912Z" fill="#D8C373"/>
<path d="M675.442 242.419L674.413 241.863L675.442 242.428V242.419Z" fill="#D8C373"/>
<path d="M654.417 284.476L653.462 283.957L654.417 284.476Z" fill="#D8C373"/>
<path d="M741.565 278.163L675.441 242.419V242.428L741.463 278.358L741.565 278.163Z" fill="#D8C373"/>
<path d="M654.417 284.476L720.262 320.749L720.271 320.739L654.417 284.476Z" fill="#D8C373"/>
<path d="M780.666 353.991L904.394 422.115L917.456 374.171L799.41 309.913L780.666 353.991Z" fill="#EFDE96"/>
<path d="M917.456 374.171L799.577 309.523L799.41 309.912L917.456 374.171Z" fill="#EFDE96"/>
<path d="M780.657 354.009L904.395 422.115L780.667 353.991L780.657 354.009Z" fill="#EFDE96"/>
<path d="M1395.93 664.346L1270.46 742.574L1275.27 809.002L1951.85 398.199L1946.45 388.447L1874.59 412.122L1830.37 334.181L1768.56 372.484L1789.16 423.626L1528.81 586.025L1516.3 531.685L1392.74 606.529L1395.93 664.346Z" fill="#EFDE96"/>
<path d="M1909.55 321.509L1909.72 321.453L1894.66 294.339L1894.28 294.58L1909.55 321.509Z" fill="#EFDE96"/>
<path d="M1874.59 412.122L1946.45 388.447L1931.44 361.425L1909.55 321.509L1894.28 294.58L1830.37 334.181L1874.59 412.122Z" fill="#EFDE96"/>
<path d="M1909.72 321.454L1909.55 321.509L1909.72 321.454Z" fill="#EFDE96"/>
<path d="M1516.3 531.685L1392.73 606.27L1392.74 606.529L1516.3 531.685Z" fill="#EFDE96"/>
<path d="M1395.93 664.345L1392.74 606.529L1269.17 681.393L1270.45 742.073L1395.93 664.345Z" fill="#D8C373"/>
<path d="M1392.73 606.27L1269.17 681.393L1392.74 606.53L1392.73 606.27Z" fill="#D8C373"/>
<path d="M1395.93 664.345L1270.45 742.073L1270.46 742.574L1395.93 664.345Z" fill="#D8C373"/>
<path d="M1275.26 809.011L1269.79 742.481L1270.04 742.333L1145.95 673.319L1140.52 736.78L1275.19 809.057L1275.26 809.011Z" fill="#D8C373"/>
<path d="M1269.79 742.481L1275.26 809.011L1275.27 809.001L1270.46 742.574L1270.04 742.333L1269.79 742.481Z" fill="#D8C373"/>
<path d="M1149.02 615.419L1077.1 575.92L1021.17 545.274L1012.54 600.161L1143.78 671.298L1149.02 615.419Z" fill="#D8C373"/>
<path d="M1149.03 615.327L1077.1 575.92L1149.02 615.419L1149.03 615.327Z" fill="#D8C373"/>
<path d="M862.883 587.721L881.108 528.913L1012.54 600.161L1021.17 545.274L697.031 367.219L658.718 443.843L585.206 421.957L578.633 435.213L862.883 587.721Z" fill="#EFDE96"/>
<path d="M620.822 351.645L619.691 353.842L619.719 353.851L620.822 351.645Z" fill="#EFDE96"/>
<path d="M600.391 391.302L585.206 421.957L658.718 443.844L697.031 367.219L631.436 331.187L620.822 351.646L619.719 353.852L600.391 391.302Z" fill="#EFDE96"/>
<path d="M1140.52 736.78L1145.89 673.29L1143.7 672.067L1012.37 601.208L881.136 529.376L862.883 587.72L882.582 598.344L1140.52 736.78Z" fill="#FFF0B6"/>
<path d="M1145.95 673.319L1145.89 673.291L1140.52 736.78L1145.95 673.319Z" fill="#FFF0B6"/>
<path d="M1143.7 672.067L1143.78 671.297L1012.54 600.161L1012.37 601.208L1143.7 672.067Z" fill="#FFF0B6"/>
<path d="M1012.37 601.209L1012.54 600.161L881.108 528.913L862.883 587.721L881.136 529.377L1012.37 601.209Z" fill="#FFF0B6"/>
<path d="M1143.78 671.298L1146.01 672.512L1145.96 673.207L1270.04 742.333L1270.45 742.073L1269.17 681.393L1149.02 615.419L1143.78 671.298Z" fill="#EFDE96"/>
<path d="M1269.17 681.392L1149.03 615.326L1149.02 615.419L1269.17 681.392Z" fill="#EFDE96"/>
<path d="M1270.45 742.073L1270.04 742.333L1270.46 742.574L1270.45 742.073Z" fill="#EFDE96"/>
<path d="M1270.04 742.333L1145.96 673.208L1145.95 673.319L1270.04 742.333Z" fill="#EFDE96"/>
<path d="M1270.46 742.574L1270.04 742.333L1270.46 742.574Z" fill="#EFDE96"/>
<path d="M1145.96 673.207L1146.01 672.512L1143.78 671.298L1143.7 672.067L1145.89 673.291L1145.9 673.179L1145.96 673.207Z" fill="#EFDE96"/>
<path d="M1145.96 673.207L1145.9 673.179L1145.89 673.291L1145.95 673.319L1145.96 673.207Z" fill="#EFDE96"/>
<path d="M1748.67 325.597L1805.32 290.01L1782.99 250.65L1727.72 284.392L1748.67 325.597Z" fill="#D8C373"/>
<path d="M1868.99 250.002L1869.08 249.946L1848.12 210.874L1847.14 211.476L1868.99 250.002Z" fill="#D8C373"/>
<path d="M1868.99 250.001L1847.14 211.476L1782.99 250.65L1805.32 290.01L1868.99 250.001Z" fill="#D8C373"/>
<path d="M604.609 519.763L568.307 500.964L514.763 601.922L817.552 683.969L833.803 638.816L834.572 639.214L834.582 639.205L604.609 519.763Z" fill="#EFDE96"/>
<path d="M1559.27 712.289L1555.94 714.106L1555.7 714.245L2013.11 568.004L1995.11 534.697L1957.56 468.177L1559.27 712.289Z" fill="#EFDE96"/>
<path d="M1555.28 714.514L1555.7 714.245L1555.63 714.273L1273.97 867.42L834.572 639.215L817.552 683.97L514.762 601.922L477.376 663.187L1275.21 878.6L2049.24 630.603L2013.11 568.004L1555.28 714.514Z" fill="#FFF0B6"/>
<path d="M817.552 683.97L834.572 639.215L833.803 638.816L817.552 683.97Z" fill="#FFF0B6"/>
<path d="M1555.28 714.514L2013.11 568.004L1555.7 714.245L1555.28 714.514Z" fill="#FFF0B6"/>
<path d="M1275.35 809.966L1140.47 737.512L882.582 598.344L578.633 435.213L550.638 491.732L604.608 519.764L834.693 638.909L834.581 639.206L1273.97 867.42L1551.54 715.58L1555.63 714.273L1555.94 714.106L1958.41 466.777L1958.75 467.417L1982.3 453.021L1951.85 398.199L1275.35 809.966Z" fill="#FFF0B6"/>
<path d="M1951.85 398.199L1275.27 809.002L1275.35 809.966L1951.85 398.199Z" fill="#FFF0B6"/>
<path d="M1275.19 809.057L1140.52 736.78L1140.47 737.512L1275.35 809.965L1275.26 809.011L1275.19 809.057Z" fill="#FFF0B6"/>
<path d="M1275.35 809.966L1275.27 809.001L1275.26 809.011L1275.35 809.966Z" fill="#FFF0B6"/>
<path d="M1140.52 736.78L882.582 598.344L1140.47 737.513L1140.52 736.78Z" fill="#FFF0B6"/>
<path d="M1140.52 736.78L1140.47 737.512L1140.52 736.78Z" fill="#FFF0B6"/>
<path d="M834.693 638.909L604.608 519.763L834.581 639.205L834.693 638.909Z" fill="#FFF0B6"/>
<path d="M1957.56 468.177L1957.54 468.158L1958.75 467.416L1958.41 466.777L1555.94 714.106L1559.27 712.289L1957.56 468.177Z" fill="#FFF0B6"/>
<path d="M1273.97 867.42L1555.63 714.273L1551.54 715.58L1273.97 867.42Z" fill="#FFF0B6"/>
<path d="M619.682 353.842H619.691L584.956 342.403L584.4 343.34L619.682 353.842Z" fill="#FFE230"/>
<path d="M619.682 353.843L584.4 343.34L563.829 378.139L600.27 391.265L619.682 353.843Z" fill="#FFE230"/>
<path d="M619.719 353.851L619.691 353.842H619.682L619.719 353.851Z" fill="#FFE230"/>
<path d="M600.391 391.301L619.719 353.851L619.682 353.842L600.27 391.264L600.391 391.301Z" fill="#FFE230"/>
<path d="M546.911 410.556L502.09 397.216L493.487 410.417L540.088 423.635L546.911 410.556Z" fill="#FFB81A"/>
<path d="M445.088 347.084L416.712 388.641L417.815 388.947L445.088 347.084Z" fill="#FFB81A"/>
<path d="M493.487 410.416L502.09 397.216L546.911 410.555L563.829 378.139L446.544 344.953L445.088 347.085L417.815 388.947L493.487 410.416Z" fill="#FFB81A"/>
<path d="M367.655 744.446L289.888 722.875L244.956 791.843L329.694 813.692L367.655 744.446Z" fill="#FFB81A"/>
<path d="M214.253 701.897L168.524 772.135L244.956 791.843L289.888 722.875L214.253 701.897Z" fill="#FFB81A"/>
<path d="M329.694 813.691L325.467 821.265L488.676 864.119L492.255 855.962L329.694 813.691Z" fill="#FFDA07"/>
<path d="M287.867 888.546L458.623 932.503L488.676 864.12L325.467 821.265L287.867 888.546Z" fill="#FFDA07"/>
<path d="M492.255 855.962L488.676 864.12L774.557 939.196L811.221 939.169L696.253 909.004L492.255 855.962Z" fill="#CB6001"/>
<path d="M764.879 1014.32L1100.44 1015.08L1096.73 1014.11L764.879 1014.32Z" fill="#CB6001"/>
<path d="M811.221 939.169L774.557 939.197L488.676 864.12L458.623 932.504L764.879 1014.32L1096.73 1014.11L811.221 939.169Z" fill="#CB6001"/>
<path d="M402.947 680.058L497.149 504.969L516.255 469.336L540.089 423.635L493.488 410.417L289.888 722.875L367.655 744.446L402.947 680.058Z" fill="#CB6001"/>
<path d="M416.713 388.642L257.878 634.413L417.816 388.947L416.713 388.642Z" fill="#CB6001"/>
<path d="M289.888 722.875L493.488 410.416L417.816 388.947L257.879 634.413L214.253 701.898L289.888 722.875Z" fill="#CB6001"/>
<path d="M550.638 491.731L577.716 434.722L584.455 421.735L547.328 410.676L540.672 423.802L516.255 469.335L514.299 473.08L550.638 491.731Z" fill="#9B4601"/>
<path d="M578.634 435.213L577.716 434.722L578.634 435.213Z" fill="#9B4601"/>
<path d="M584.455 421.735L600.27 391.265L563.829 378.139L547.328 410.676L584.455 421.735Z" fill="#9B4601"/>
<path d="M577.716 434.721L578.634 435.213L585.206 421.957L584.455 421.734L577.716 434.721Z" fill="#9B4601"/>
<path d="M584.455 421.735L585.206 421.957L600.39 391.302L600.27 391.265L584.455 421.735Z" fill="#9B4601"/>
<path d="M578.633 435.213L577.716 434.722L550.638 491.731L578.633 435.213Z" fill="#9B4601"/>
<path d="M540.672 423.802L547.328 410.676L546.911 410.555L540.088 423.635L540.672 423.802Z" fill="#9B4601"/>
<path d="M563.829 378.139L546.911 410.555L547.328 410.676L563.829 378.139Z" fill="#9B4601"/>
<path d="M540.088 423.635L516.255 469.335L540.672 423.802L540.088 423.635Z" fill="#9B4601"/>
<path d="M469.571 698.792L477.376 663.186L568.307 500.964L514.299 473.08L497.149 504.968L403.206 680.131L469.571 698.792Z" fill="#833F07"/>
<path d="M497.149 504.969L402.946 680.058L403.206 680.132L497.149 504.969Z" fill="#833F07"/>
<path d="M445.663 807.88L469.571 698.792L403.206 680.132L368.582 744.696L329.694 813.692L492.458 855.518L696.253 909.005L810.878 938.807L818.155 905.769L445.663 807.88Z" fill="#9A4402"/>
<path d="M367.655 744.446L329.694 813.692L368.582 744.696L367.655 744.446Z" fill="#9A4402"/>
<path d="M329.694 813.691L492.255 855.962L492.458 855.517L329.694 813.691Z" fill="#9A4402"/>
<path d="M492.254 855.963L696.252 909.005L492.458 855.518L492.254 855.963Z" fill="#9A4402"/>
<path d="M403.206 680.131L402.947 680.057L367.655 744.446L368.582 744.696L403.206 680.131Z" fill="#9A4402"/>
<path d="M244.956 791.843L240.349 798.916L325.467 821.266L329.694 813.692L244.956 791.843Z" fill="#CB6001"/>
<path d="M325.467 821.265L240.349 798.916L244.956 791.843L168.524 772.135L120.579 845.126L287.867 888.546L325.467 821.265Z" fill="#CB6001"/>
<path d="M1994.03 839.546L1747.73 918.645L1683.73 938.594L1694.62 938.585L2062.37 824.501L2059.7 818.8L1994.03 839.546Z" fill="#CB6001"/>
<path d="M1706.03 1013.7L2094.96 894.275L2094.45 893.199L1706.03 1013.7Z" fill="#CB6001"/>
<path d="M1440.26 1014.5L1706.03 1013.7L1442.27 1013.87L1440.26 1014.5Z" fill="#CB6001"/>
<path d="M2062.37 824.5L1694.62 938.584L1683.73 938.594L1442.27 1013.87L1706.03 1013.7L2094.45 893.199L2062.37 824.5Z" fill="#CB6001"/>
<path d="M477.376 663.187L480.027 664.429L471.147 699.237L445.663 807.88L945.369 939.085L1254.42 938.881L1275.21 878.6L477.376 663.187Z" fill="#7B714F"/>
<path d="M1228.71 1013.48L1254.42 938.881L945.368 939.085L1228.71 1013.48Z" fill="#7B714F"/>
<path d="M471.147 699.237L480.027 664.429L477.376 663.187L469.571 698.792L471.147 699.237Z" fill="#7B714F"/>
<path d="M445.663 807.88L471.147 699.237L469.571 698.792L445.663 807.88Z" fill="#7B714F"/>
<path d="M1300.11 938.853L1568.83 938.668L2081.72 776.52L2086.3 775.064L2073.49 721.689L2067.37 698.681L2056.06 692.387L2064.41 687.566L2049.24 630.603L1275.21 878.599L1300.11 938.853Z" fill="#7B714F"/>
<path d="M1300.11 938.854L1331.09 1013.84L1568.83 938.668L1300.11 938.854Z" fill="#7B714F"/>
<path d="M2067.37 698.681L2064.41 687.566L2056.06 692.387L2067.37 698.681Z" fill="#7B714F"/>
<path d="M1254.42 938.881L1300.11 938.854L1275.21 878.6L1254.42 938.881Z" fill="#833F07"/>
<path d="M1680.52 938.594L1747.43 917.459L1739.55 885.264L1569.87 938.668L1680.52 938.594Z" fill="#833F07"/>
<path d="M810.878 938.807L812.278 939.168L945.137 939.085L818.155 905.769L810.878 938.807Z" fill="#833F07"/>
<path d="M1096.74 1014.11L1100.44 1015.08L1440.26 1014.5L1442.25 1013.87L1096.74 1014.11Z" fill="#833F07"/>
<path d="M1569.87 938.668L1331.09 1013.84L1300.11 938.853L1254.42 938.881L1228.71 1013.48L945.137 939.085L812.277 939.169L1096.74 1014.11L1442.25 1013.87L1680.52 938.594L1569.87 938.668Z" fill="#833F07"/>
<path d="M1747.43 917.459L1680.52 938.594H1683.73L1747.72 918.645L1747.43 917.459Z" fill="#833F07"/>
<path d="M1442.25 1013.87L1440.26 1014.5L1442.27 1013.87H1442.25Z" fill="#833F07"/>
<path d="M1442.25 1013.87H1442.27L1683.73 938.594H1680.52L1442.25 1013.87Z" fill="#833F07"/>
<path d="M2059.35 662.788L2065.19 687.112L2141.85 642.867L2138.25 637.259L2059.35 662.788Z" fill="#9B4200"/>
<path d="M2087.59 774.666L2081.72 776.52L1739.55 885.265L1747.43 917.459L1994.03 839.546L2147.62 790.221L2103.68 719.575L2104.48 719.371L2068.06 699.07L2073.49 721.689L2087.59 774.666Z" fill="#9B4200"/>
<path d="M2065.19 687.112L2068.06 699.07L2104.48 719.371L2103.68 719.575L2147.62 790.221L2221.36 766.546L2141.85 642.867L2065.19 687.112Z" fill="#9B4200"/>
<path d="M1994.03 839.545L1747.43 917.459L1747.72 918.645L1994.03 839.545Z" fill="#9B4200"/>
<path d="M2081.72 776.52L2087.59 774.666L2073.49 721.688L2086.3 775.064L2081.72 776.52Z" fill="#9B4200"/>
<path d="M2062.37 824.501L2151.71 796.784L2147.7 790.351L2059.7 818.8L2062.37 824.501Z" fill="#FFDA07"/>
<path d="M2094.96 894.275L2266.87 839.712L2094.45 893.199L2094.96 894.275Z" fill="#FFDA07"/>
<path d="M2151.71 796.783L2062.37 824.5L2094.45 893.199L2266.87 839.712L2221.36 766.545L2147.7 790.35L2151.71 796.783Z" fill="#FFDA07"/>
<path d="M584.956 342.403L469.766 309.217L584.4 343.339L584.956 342.403Z" fill="#C96612"/>
<path d="M563.829 378.138L584.4 343.339L469.766 309.217L446.544 344.952L563.829 378.138Z" fill="#C96612"/>
<path d="M1983.1 376.368L1946.86 388.308L1952.23 397.967L1982.3 453.021L1958.77 467.435L1995.11 534.697L2049.24 630.603L2059.35 662.788L2138.25 637.259L2018.36 435.158L1990.76 389.568L1983.1 376.368Z" fill="#833F07"/>
<path d="M1946.87 388.307L1983.1 376.368L1966.6 347.928L1931.85 361.267L1946.87 388.307Z" fill="#833F07"/>
<path d="M1952.23 397.967L1946.87 388.308L1946.45 388.447L1951.85 398.199L1952.23 397.967Z" fill="#833F07"/>
<path d="M1931.85 361.268L1931.44 361.425L1946.45 388.447L1946.87 388.308L1931.85 361.268Z" fill="#833F07"/>
<path d="M1995.11 534.697L1958.77 467.435L1957.56 468.177L1995.11 534.697Z" fill="#833F07"/>
<path d="M1982.3 453.02L1952.23 397.967L1951.85 398.199L1982.3 453.02Z" fill="#833F07"/>
<path d="M1958.77 467.435L1982.3 453.021L1958.75 467.417L1958.77 467.435Z" fill="#833F07"/>
<path d="M1951.85 398.199L1952.23 397.967L1951.85 398.199Z" fill="#833F07"/>
<path d="M1957.54 468.158L1957.56 468.177L1958.77 467.435L1958.75 467.417L1957.54 468.158Z" fill="#833F07"/>
<path d="M2018.36 435.158L2143.51 641.912L2204.82 606.529L2038.18 373.893L1991.21 389.42L2018.36 435.158Z" fill="#CB6001"/>
<path d="M2314.15 630.158L2114.18 348.772L2112.89 349.198L2314.15 630.158Z" fill="#CB6001"/>
<path d="M2112.89 349.198L2038.19 373.893L2204.82 606.529L2143.51 641.912L2179.31 701.063L2208.31 691.247L2314.15 630.158L2112.89 349.198Z" fill="#CB6001"/>
<path d="M2018.36 435.157L1991.21 389.42L1990.76 389.568L2018.36 435.157Z" fill="#CB6001"/>
<path d="M2221.36 766.546L2304.52 744.882L2208.31 691.247L2179.31 701.063L2221.36 766.546Z" fill="#FFB207"/>
<path d="M1966.6 347.928L1944.71 310.061L1909.72 321.454L1931.85 361.268L1966.6 347.928Z" fill="#FAE51B"/>
<path d="M1931.85 361.268L1909.72 321.454L1909.55 321.509L1931.44 361.425L1931.85 361.268Z" fill="#FAE51B"/>
<path d="M1983.42 376.266L1991.21 389.42L2038.18 373.893L2029.1 361.212L1983.42 376.266Z" fill="#FFB509"/>
<path d="M2114.18 348.771L2089.2 316.123L2112.89 349.198L2114.18 348.771Z" fill="#FFB509"/>
<path d="M1966.6 347.928L1983.42 376.266L2029.1 361.212L2038.18 373.893L2112.89 349.198L2089.2 316.124L2083.68 308.902L1966.6 347.928Z" fill="#FFB509"/>
<path d="M1990.76 389.568L1991.21 389.42L1983.42 376.266L1983.1 376.368L1990.76 389.568Z" fill="#FFB509"/>
<path d="M1983.42 376.266L1966.6 347.928L1983.1 376.368L1983.42 376.266Z" fill="#FFB509"/>
<path d="M1966.6 347.928L2083.68 308.902L2058.01 272.583L1944.71 310.061L1966.6 347.928Z" fill="#CB6001"/>
</svg>
